<?xml version="1.0" encoding="UTF-8" standalone="no"?>
<!DOCTYPE svg PUBLIC "-//W3C//DTD SVG 1.1//EN"
 "http://www.w3.org/Graphics/SVG/1.1/DTD/svg11.dtd">
<!-- Generated by graphviz version 2.40.1 (20161225.0304)
 -->
<!-- Title: dependencies Pages: 1 -->
<svg width="989pt" height="211pt"
 viewBox="0.00 0.00 989.00 211.00" xmlns="http://www.w3.org/2000/svg" xmlns:xlink="http://www.w3.org/1999/xlink">
<g id="graph0" class="graph" transform="scale(1 1) rotate(0) translate(4 207)">
<title>dependencies</title>
<polygon fill="#ffffff" stroke="transparent" points="-4,4 -4,-207 985,-207 985,4 -4,4"/>
<text text-anchor="start" x="469.5091" y="-42.4" font-family="sans-serif" font-weight="bold" font-size="14.00" fill="#000000">Legend</text>
<polygon fill="#ffffb3" stroke="transparent" points="256.5,-10 256.5,-30 276.5,-30 276.5,-10 256.5,-10"/>
<text text-anchor="start" x="280.129" y="-15.4" font-family="sans-serif" font-size="14.00" fill="#000000"> &#160;Declarations</text>
<polygon fill="#8dd3c7" stroke="transparent" points="369.5,-10 369.5,-30 389.5,-30 389.5,-10 369.5,-10"/>
<text text-anchor="start" x="393.2251" y="-15.4" font-family="sans-serif" font-size="14.00" fill="#000000"> &#160;Module</text>
<polygon fill="#80b1d3" stroke="transparent" points="455.5,-10 455.5,-30 475.5,-30 475.5,-10 455.5,-10"/>
<text text-anchor="start" x="479.2812" y="-15.4" font-family="sans-serif" font-size="14.00" fill="#000000"> &#160;Bootstrap</text>
<polygon fill="#fdb462" stroke="transparent" points="552.5,-10 552.5,-30 572.5,-30 572.5,-10 552.5,-10"/>
<text text-anchor="start" x="576.1732" y="-15.4" font-family="sans-serif" font-size="14.00" fill="#000000"> &#160;Providers</text>
<polygon fill="#fb8072" stroke="transparent" points="648.5,-10 648.5,-30 668.5,-30 668.5,-10 648.5,-10"/>
<text text-anchor="start" x="672.2258" y="-15.4" font-family="sans-serif" font-size="14.00" fill="#000000"> &#160;Exports</text>
<g id="clust1" class="cluster">
<title>cluster_ToolsModule</title>
<polygon fill="none" stroke="#000000" stroke-dasharray="1,5" points="8,-70 8,-195 973,-195 973,-70 8,-70"/>
</g>
<g id="clust2" class="cluster">
<title>cluster_ToolsModule_declarations</title>
<polygon fill="none" stroke="#000000" points="793,-78 793,-130 965,-130 965,-78 793,-78"/>
</g>
<g id="clust4" class="cluster">
<title>cluster_ToolsModule_imports</title>
<polygon fill="none" stroke="#000000" points="16,-78 16,-130 785,-130 785,-78 16,-78"/>
</g>
<!-- ClassMapperComponent -->
<g id="node1" class="node">
<title>ClassMapperComponent</title>
<polygon fill="#ffffb3" stroke="#000000" points="956.6979,-122 801.3021,-122 801.3021,-86 956.6979,-86 956.6979,-122"/>
<text text-anchor="middle" x="879" y="-99.8" font-family="Times,serif" font-size="14.00" fill="#000000">ClassMapperComponent</text>
</g>
<!-- ToolsModule -->
<g id="node2" class="node">
<title>ToolsModule</title>
<polygon fill="#8dd3c7" stroke="#000000" points="529.9387,-187 526.9387,-191 505.9387,-191 502.9387,-187 438.0613,-187 438.0613,-151 529.9387,-151 529.9387,-187"/>
<text text-anchor="middle" x="484" y="-164.8" font-family="Times,serif" font-size="14.00" fill="#000000">ToolsModule</text>
</g>
<!-- ClassMapperComponent&#45;&gt;ToolsModule -->
<g id="edge1" class="edge">
<title>ClassMapperComponent&#45;&gt;ToolsModule</title>
<path fill="none" stroke="#000000" d="M879,-122.2921C879,-144.2057 879,-178 879,-178 879,-178 540.0846,-178 540.0846,-178"/>
<polygon fill="#000000" stroke="#000000" points="540.0846,-174.5001 530.0846,-178 540.0845,-181.5001 540.0846,-174.5001"/>
</g>
<!-- CommonModule -->
<g id="node3" class="node">
<title>CommonModule</title>
<polygon fill="#8dd3c7" stroke="#000000" points="776.6681,-122 773.6681,-126 752.6681,-126 749.6681,-122 665.3319,-122 665.3319,-86 776.6681,-86 776.6681,-122"/>
<text text-anchor="middle" x="721" y="-99.8" font-family="Times,serif" font-size="14.00" fill="#000000">CommonModule</text>
</g>
<!-- CommonModule&#45;&gt;ToolsModule -->
<g id="edge2" class="edge">
<title>CommonModule&#45;&gt;ToolsModule</title>
<path fill="none" stroke="#000000" d="M721,-122.1061C721,-141.3391 721,-169 721,-169 721,-169 539.977,-169 539.977,-169"/>
<polygon fill="#000000" stroke="#000000" points="539.977,-165.5001 529.977,-169 539.977,-172.5001 539.977,-165.5001"/>
</g>
<!-- RouterModule -->
<g id="node4" class="node">
<title>RouterModule</title>
<polygon fill="#8dd3c7" stroke="#000000" points="646.6528,-122 643.6528,-126 622.6528,-126 619.6528,-122 549.3472,-122 549.3472,-86 646.6528,-86 646.6528,-122"/>
<text text-anchor="middle" x="598" y="-99.8" font-family="Times,serif" font-size="14.00" fill="#000000">RouterModule</text>
</g>
<!-- RouterModule&#45;&gt;ToolsModule -->
<g id="edge3" class="edge">
<title>RouterModule&#45;&gt;ToolsModule</title>
<path fill="none" stroke="#000000" d="M598,-122.027C598,-138.3976 598,-160 598,-160 598,-160 540.0396,-160 540.0396,-160"/>
<polygon fill="#000000" stroke="#000000" points="540.0396,-156.5001 530.0396,-160 540.0395,-163.5001 540.0396,-156.5001"/>
</g>
<!-- FormsModule -->
<g id="node5" class="node">
<title>FormsModule</title>
<polygon fill="#8dd3c7" stroke="#000000" points="531.8288,-122 528.8288,-126 507.8288,-126 504.8288,-122 436.1712,-122 436.1712,-86 531.8288,-86 531.8288,-122"/>
<text text-anchor="middle" x="484" y="-99.8" font-family="Times,serif" font-size="14.00" fill="#000000">FormsModule</text>
</g>
<!-- FormsModule&#45;&gt;ToolsModule -->
<g id="edge4" class="edge">
<title>FormsModule&#45;&gt;ToolsModule</title>
<path fill="none" stroke="#000000" d="M484,-122.1061C484,-122.1061 484,-140.991 484,-140.991"/>
<polygon fill="#000000" stroke="#000000" points="480.5001,-140.9909 484,-150.991 487.5001,-140.991 480.5001,-140.9909"/>
</g>
<!-- ReactiveFormsModule -->
<g id="node6" class="node">
<title>ReactiveFormsModule</title>
<polygon fill="#8dd3c7" stroke="#000000" points="418.3047,-122 415.3047,-126 394.3047,-126 391.3047,-122 273.6953,-122 273.6953,-86 418.3047,-86 418.3047,-122"/>
<text text-anchor="middle" x="346" y="-99.8" font-family="Times,serif" font-size="14.00" fill="#000000">ReactiveFormsModule</text>
</g>
<!-- ReactiveFormsModule&#45;&gt;ToolsModule -->
<g id="edge5" class="edge">
<title>ReactiveFormsModule&#45;&gt;ToolsModule</title>
<path fill="none" stroke="#000000" d="M346,-122.027C346,-138.3976 346,-160 346,-160 346,-160 428.048,-160 428.048,-160"/>
<polygon fill="#000000" stroke="#000000" points="428.048,-163.5001 438.048,-160 428.048,-156.5001 428.048,-163.5001"/>
</g>
<!-- SharedModule -->
<g id="node7" class="node">
<title>SharedModule</title>
<polygon fill="#8dd3c7" stroke="#000000" points="256.4231,-122 253.4231,-126 232.4231,-126 229.4231,-122 157.5769,-122 157.5769,-86 256.4231,-86 256.4231,-122"/>
<text text-anchor="middle" x="207" y="-99.8" font-family="Times,serif" font-size="14.00" fill="#000000">SharedModule</text>
</g>
<!-- SharedModule&#45;&gt;ToolsModule -->
<g id="edge6" class="edge">
<title>SharedModule&#45;&gt;ToolsModule</title>
<path fill="none" stroke="#000000" d="M207,-122.1061C207,-141.3391 207,-169 207,-169 207,-169 428.2591,-169 428.2591,-169"/>
<polygon fill="#000000" stroke="#000000" points="428.2591,-172.5001 438.2591,-169 428.259,-165.5001 428.2591,-172.5001"/>
</g>
<!-- ClipboardModule -->
<g id="node8" class="node">
<title>ClipboardModule</title>
<polygon fill="#8dd3c7" stroke="#000000" points="139.5437,-122 136.5437,-126 115.5437,-126 112.5437,-122 24.4563,-122 24.4563,-86 139.5437,-86 139.5437,-122"/>
<text text-anchor="middle" x="82" y="-99.8" font-family="Times,serif" font-size="14.00" fill="#000000">ClipboardModule</text>
</g>
<!-- ClipboardModule&#45;&gt;ToolsModule -->
<g id="edge7" class="edge">
<title>ClipboardModule&#45;&gt;ToolsModule</title>
<path fill="none" stroke="#000000" d="M82,-122.2921C82,-144.2057 82,-178 82,-178 82,-178 428.2769,-178 428.2769,-178"/>
<polygon fill="#000000" stroke="#000000" points="428.2769,-181.5001 438.2769,-178 428.2768,-174.5001 428.2769,-181.5001"/>
</g>
</g>
</svg>
