<?xml version="1.0" encoding="UTF-8" standalone="no"?>
<!DOCTYPE svg PUBLIC "-//W3C//DTD SVG 1.1//EN"
 "http://www.w3.org/Graphics/SVG/1.1/DTD/svg11.dtd">
<!-- Generated by graphviz version 2.40.1 (20161225.0304)
 -->
<!-- Title: dependencies Pages: 1 -->
<svg width="522pt" height="284pt"
 viewBox="0.00 0.00 522.00 284.00" xmlns="http://www.w3.org/2000/svg" xmlns:xlink="http://www.w3.org/1999/xlink">
<g id="graph0" class="graph" transform="scale(1 1) rotate(0) translate(4 280)">
<title>dependencies</title>
<polygon fill="#ffffff" stroke="transparent" points="-4,4 -4,-280 518,-280 518,4 -4,4"/>
<text text-anchor="start" x="236.0091" y="-42.4" font-family="sans-serif" font-weight="bold" font-size="14.00" fill="#000000">Legend</text>
<polygon fill="#ffffb3" stroke="transparent" points="23,-10 23,-30 43,-30 43,-10 23,-10"/>
<text text-anchor="start" x="46.629" y="-15.4" font-family="sans-serif" font-size="14.00" fill="#000000"> &#160;Declarations</text>
<polygon fill="#8dd3c7" stroke="transparent" points="136,-10 136,-30 156,-30 156,-10 136,-10"/>
<text text-anchor="start" x="159.7251" y="-15.4" font-family="sans-serif" font-size="14.00" fill="#000000"> &#160;Module</text>
<polygon fill="#80b1d3" stroke="transparent" points="222,-10 222,-30 242,-30 242,-10 222,-10"/>
<text text-anchor="start" x="245.7812" y="-15.4" font-family="sans-serif" font-size="14.00" fill="#000000"> &#160;Bootstrap</text>
<polygon fill="#fdb462" stroke="transparent" points="319,-10 319,-30 339,-30 339,-10 319,-10"/>
<text text-anchor="start" x="342.6732" y="-15.4" font-family="sans-serif" font-size="14.00" fill="#000000"> &#160;Providers</text>
<polygon fill="#fb8072" stroke="transparent" points="415,-10 415,-30 435,-30 435,-10 415,-10"/>
<text text-anchor="start" x="438.7258" y="-15.4" font-family="sans-serif" font-size="14.00" fill="#000000"> &#160;Exports</text>
<g id="clust1" class="cluster">
<title>cluster_ProjectsModule</title>
<polygon fill="none" stroke="#000000" stroke-dasharray="1,5" points="8,-70 8,-268 506,-268 506,-70 8,-70"/>
</g>
<g id="clust2" class="cluster">
<title>cluster_ProjectsModule_declarations</title>
<polygon fill="none" stroke="#000000" points="174,-78 174,-130 498,-130 498,-78 174,-78"/>
</g>
<g id="clust6" class="cluster">
<title>cluster_ProjectsModule_exports</title>
<polygon fill="none" stroke="#000000" points="91,-208 91,-260 423,-260 423,-208 91,-208"/>
</g>
<g id="clust8" class="cluster">
<title>cluster_ProjectsModule_providers</title>
<polygon fill="none" stroke="#000000" points="16,-78 16,-130 166,-130 166,-78 16,-78"/>
</g>
<!-- ProjectCardComponent -->
<g id="node1" class="node">
<title>ProjectCardComponent</title>
<polygon fill="#ffffb3" stroke="#000000" points="490.1979,-122 341.8021,-122 341.8021,-86 490.1979,-86 490.1979,-122"/>
<text text-anchor="middle" x="416" y="-99.8" font-family="Times,serif" font-size="14.00" fill="#000000">ProjectCardComponent</text>
</g>
<!-- ProjectsModule -->
<g id="node3" class="node">
<title>ProjectsModule</title>
<polygon fill="#8dd3c7" stroke="#000000" points="305.1486,-187 302.1486,-191 281.1486,-191 278.1486,-187 200.8514,-187 200.8514,-151 305.1486,-151 305.1486,-187"/>
<text text-anchor="middle" x="253" y="-164.8" font-family="Times,serif" font-size="14.00" fill="#000000">ProjectsModule</text>
</g>
<!-- ProjectCardComponent&#45;&gt;ProjectsModule -->
<g id="edge1" class="edge">
<title>ProjectCardComponent&#45;&gt;ProjectsModule</title>
<path fill="none" stroke="#000000" d="M378.375,-122.1061C378.375,-141.3391 378.375,-169 378.375,-169 378.375,-169 315.4438,-169 315.4438,-169"/>
<polygon fill="#000000" stroke="#000000" points="315.4439,-165.5001 305.4438,-169 315.4438,-172.5001 315.4439,-165.5001"/>
</g>
<!-- ProjectListComponent -->
<g id="node2" class="node">
<title>ProjectListComponent</title>
<polygon fill="#ffffb3" stroke="#000000" points="324.2646,-122 181.7354,-122 181.7354,-86 324.2646,-86 324.2646,-122"/>
<text text-anchor="middle" x="253" y="-99.8" font-family="Times,serif" font-size="14.00" fill="#000000">ProjectListComponent</text>
</g>
<!-- ProjectListComponent&#45;&gt;ProjectsModule -->
<g id="edge2" class="edge">
<title>ProjectListComponent&#45;&gt;ProjectsModule</title>
<path fill="none" stroke="#000000" d="M253,-122.1061C253,-122.1061 253,-140.991 253,-140.991"/>
<polygon fill="#000000" stroke="#000000" points="249.5001,-140.9909 253,-150.991 256.5001,-140.991 249.5001,-140.9909"/>
</g>
<!-- ProjectCardComponent  -->
<g id="node4" class="node">
<title>ProjectCardComponent </title>
<polygon fill="#fb8072" stroke="#000000" points="414.6981,-252 263.3019,-252 263.3019,-216 414.6981,-216 414.6981,-252"/>
<text text-anchor="middle" x="339" y="-229.8" font-family="Times,serif" font-size="14.00" fill="#000000">ProjectCardComponent </text>
</g>
<!-- ProjectsModule&#45;&gt;ProjectCardComponent  -->
<g id="edge3" class="edge">
<title>ProjectsModule&#45;&gt;ProjectCardComponent </title>
<path fill="none" stroke="#000000" stroke-dasharray="5,2" d="M284.2376,-187.1061C284.2376,-187.1061 284.2376,-205.991 284.2376,-205.991"/>
<polygon fill="#000000" stroke="#000000" points="280.7376,-205.9909 284.2376,-215.991 287.7376,-205.991 280.7376,-205.9909"/>
</g>
<!-- ProjectListComponent  -->
<g id="node5" class="node">
<title>ProjectListComponent </title>
<polygon fill="#fb8072" stroke="#000000" points="245.2646,-252 98.7354,-252 98.7354,-216 245.2646,-216 245.2646,-252"/>
<text text-anchor="middle" x="172" y="-229.8" font-family="Times,serif" font-size="14.00" fill="#000000">ProjectListComponent </text>
</g>
<!-- ProjectsModule&#45;&gt;ProjectListComponent  -->
<g id="edge4" class="edge">
<title>ProjectsModule&#45;&gt;ProjectListComponent </title>
<path fill="none" stroke="#000000" stroke-dasharray="5,2" d="M222.9041,-187.1061C222.9041,-187.1061 222.9041,-205.991 222.9041,-205.991"/>
<polygon fill="#000000" stroke="#000000" points="219.4042,-205.9909 222.9041,-215.991 226.4042,-205.991 219.4042,-205.9909"/>
</g>
<!-- ProjectService -->
<g id="node6" class="node">
<title>ProjectService</title>
<ellipse fill="#fdb462" stroke="#000000" cx="91" cy="-104" rx="67.1888" ry="18"/>
<text text-anchor="middle" x="91" y="-99.8" font-family="Times,serif" font-size="14.00" fill="#000000">ProjectService</text>
</g>
<!-- ProjectService&#45;&gt;ProjectsModule -->
<g id="edge5" class="edge">
<title>ProjectService&#45;&gt;ProjectsModule</title>
<path fill="none" stroke="#000000" d="M128.606,-119.0757C128.606,-138.2773 128.606,-169 128.606,-169 128.606,-169 190.6063,-169 190.6063,-169"/>
<polygon fill="#000000" stroke="#000000" points="190.6063,-172.5001 200.6063,-169 190.6062,-165.5001 190.6063,-172.5001"/>
</g>
</g>
</svg>
