<?xml version="1.0" encoding="UTF-8" standalone="no"?>
<!DOCTYPE svg PUBLIC "-//W3C//DTD SVG 1.1//EN"
 "http://www.w3.org/Graphics/SVG/1.1/DTD/svg11.dtd">
<!-- Generated by graphviz version 2.40.1 (20161225.0304)
 -->
<!-- Title: dependencies Pages: 1 -->
<svg width="760pt" height="284pt"
 viewBox="0.00 0.00 760.00 284.00" xmlns="http://www.w3.org/2000/svg" xmlns:xlink="http://www.w3.org/1999/xlink">
<g id="graph0" class="graph" transform="scale(1 1) rotate(0) translate(4 280)">
<title>dependencies</title>
<polygon fill="#ffffff" stroke="transparent" points="-4,4 -4,-280 756,-280 756,4 -4,4"/>
<text text-anchor="start" x="355.0091" y="-42.4" font-family="sans-serif" font-weight="bold" font-size="14.00" fill="#000000">Legend</text>
<polygon fill="#ffffb3" stroke="transparent" points="142,-10 142,-30 162,-30 162,-10 142,-10"/>
<text text-anchor="start" x="165.629" y="-15.4" font-family="sans-serif" font-size="14.00" fill="#000000"> &#160;Declarations</text>
<polygon fill="#8dd3c7" stroke="transparent" points="255,-10 255,-30 275,-30 275,-10 255,-10"/>
<text text-anchor="start" x="278.7251" y="-15.4" font-family="sans-serif" font-size="14.00" fill="#000000"> &#160;Module</text>
<polygon fill="#80b1d3" stroke="transparent" points="341,-10 341,-30 361,-30 361,-10 341,-10"/>
<text text-anchor="start" x="364.7812" y="-15.4" font-family="sans-serif" font-size="14.00" fill="#000000"> &#160;Bootstrap</text>
<polygon fill="#fdb462" stroke="transparent" points="438,-10 438,-30 458,-30 458,-10 438,-10"/>
<text text-anchor="start" x="461.6732" y="-15.4" font-family="sans-serif" font-size="14.00" fill="#000000"> &#160;Providers</text>
<polygon fill="#fb8072" stroke="transparent" points="534,-10 534,-30 554,-30 554,-10 534,-10"/>
<text text-anchor="start" x="557.7258" y="-15.4" font-family="sans-serif" font-size="14.00" fill="#000000"> &#160;Exports</text>
<g id="clust1" class="cluster">
<title>cluster_ProjectsModule</title>
<polygon fill="none" stroke="#000000" stroke-dasharray="1,5" points="8,-70 8,-268 744,-268 744,-70 8,-70"/>
</g>
<g id="clust2" class="cluster">
<title>cluster_ProjectsModule_declarations</title>
<polygon fill="none" stroke="#000000" points="412,-78 412,-130 736,-130 736,-78 412,-78"/>
</g>
<g id="clust5" class="cluster">
<title>cluster_ProjectsModule_imports</title>
<polygon fill="none" stroke="#000000" points="174,-78 174,-130 404,-130 404,-78 174,-78"/>
</g>
<g id="clust6" class="cluster">
<title>cluster_ProjectsModule_exports</title>
<polygon fill="none" stroke="#000000" points="173,-208 173,-260 505,-260 505,-208 173,-208"/>
</g>
<g id="clust8" class="cluster">
<title>cluster_ProjectsModule_providers</title>
<polygon fill="none" stroke="#000000" points="16,-78 16,-130 166,-130 166,-78 16,-78"/>
</g>
<!-- ProjectCardComponent -->
<g id="node1" class="node">
<title>ProjectCardComponent</title>
<polygon fill="#ffffb3" stroke="#000000" points="728.1979,-122 579.8021,-122 579.8021,-86 728.1979,-86 728.1979,-122"/>
<text text-anchor="middle" x="654" y="-99.8" font-family="Times,serif" font-size="14.00" fill="#000000">ProjectCardComponent</text>
</g>
<!-- ProjectsModule -->
<g id="node3" class="node">
<title>ProjectsModule</title>
<polygon fill="#8dd3c7" stroke="#000000" points="392.1486,-187 389.1486,-191 368.1486,-191 365.1486,-187 287.8514,-187 287.8514,-151 392.1486,-151 392.1486,-187"/>
<text text-anchor="middle" x="340" y="-164.8" font-family="Times,serif" font-size="14.00" fill="#000000">ProjectsModule</text>
</g>
<!-- ProjectCardComponent&#45;&gt;ProjectsModule -->
<g id="edge1" class="edge">
<title>ProjectCardComponent&#45;&gt;ProjectsModule</title>
<path fill="none" stroke="#000000" d="M654,-122.2843C654,-143.3211 654,-175 654,-175 654,-175 402.2032,-175 402.2032,-175"/>
<polygon fill="#000000" stroke="#000000" points="402.2032,-171.5001 392.2032,-175 402.2032,-178.5001 402.2032,-171.5001"/>
</g>
<!-- ProjectListComponent -->
<g id="node2" class="node">
<title>ProjectListComponent</title>
<polygon fill="#ffffb3" stroke="#000000" points="562.2646,-122 419.7354,-122 419.7354,-86 562.2646,-86 562.2646,-122"/>
<text text-anchor="middle" x="491" y="-99.8" font-family="Times,serif" font-size="14.00" fill="#000000">ProjectListComponent</text>
</g>
<!-- ProjectListComponent&#45;&gt;ProjectsModule -->
<g id="edge2" class="edge">
<title>ProjectListComponent&#45;&gt;ProjectsModule</title>
<path fill="none" stroke="#000000" d="M458.375,-122.0225C458.375,-139.3734 458.375,-163 458.375,-163 458.375,-163 402.2656,-163 402.2656,-163"/>
<polygon fill="#000000" stroke="#000000" points="402.2656,-159.5001 392.2656,-163 402.2655,-166.5001 402.2656,-159.5001"/>
</g>
<!-- ProjectListComponent  -->
<g id="node6" class="node">
<title>ProjectListComponent </title>
<polygon fill="#fb8072" stroke="#000000" points="497.2646,-252 350.7354,-252 350.7354,-216 497.2646,-216 497.2646,-252"/>
<text text-anchor="middle" x="424" y="-229.8" font-family="Times,serif" font-size="14.00" fill="#000000">ProjectListComponent </text>
</g>
<!-- ProjectsModule&#45;&gt;ProjectListComponent  -->
<g id="edge5" class="edge">
<title>ProjectsModule&#45;&gt;ProjectListComponent </title>
<path fill="none" stroke="#000000" stroke-dasharray="5,2" d="M371.5959,-187.1061C371.5959,-187.1061 371.5959,-205.991 371.5959,-205.991"/>
<polygon fill="#000000" stroke="#000000" points="368.096,-205.9909 371.5959,-215.991 375.096,-205.991 368.096,-205.9909"/>
</g>
<!-- ProjectCardComponent  -->
<g id="node7" class="node">
<title>ProjectCardComponent </title>
<polygon fill="#fb8072" stroke="#000000" points="332.6981,-252 181.3019,-252 181.3019,-216 332.6981,-216 332.6981,-252"/>
<text text-anchor="middle" x="257" y="-229.8" font-family="Times,serif" font-size="14.00" fill="#000000">ProjectCardComponent </text>
</g>
<!-- ProjectsModule&#45;&gt;ProjectCardComponent  -->
<g id="edge6" class="edge">
<title>ProjectsModule&#45;&gt;ProjectCardComponent </title>
<path fill="none" stroke="#000000" stroke-dasharray="5,2" d="M310.2625,-187.1061C310.2625,-187.1061 310.2625,-205.991 310.2625,-205.991"/>
<polygon fill="#000000" stroke="#000000" points="306.7625,-205.9909 310.2625,-215.991 313.7625,-205.991 306.7625,-205.9909"/>
</g>
<!-- CommonModule -->
<g id="node4" class="node">
<title>CommonModule</title>
<polygon fill="#8dd3c7" stroke="#000000" points="395.6681,-122 392.6681,-126 371.6681,-126 368.6681,-122 284.3319,-122 284.3319,-86 395.6681,-86 395.6681,-122"/>
<text text-anchor="middle" x="340" y="-99.8" font-family="Times,serif" font-size="14.00" fill="#000000">CommonModule</text>
</g>
<!-- CommonModule&#45;&gt;ProjectsModule -->
<g id="edge3" class="edge">
<title>CommonModule&#45;&gt;ProjectsModule</title>
<path fill="none" stroke="#000000" d="M340,-122.1061C340,-122.1061 340,-140.991 340,-140.991"/>
<polygon fill="#000000" stroke="#000000" points="336.5001,-140.9909 340,-150.991 343.5001,-140.991 336.5001,-140.9909"/>
</g>
<!-- NgbModule -->
<g id="node5" class="node">
<title>NgbModule</title>
<polygon fill="#8dd3c7" stroke="#000000" points="265.6571,-122 262.6571,-126 241.6571,-126 238.6571,-122 182.3429,-122 182.3429,-86 265.6571,-86 265.6571,-122"/>
<text text-anchor="middle" x="224" y="-99.8" font-family="Times,serif" font-size="14.00" fill="#000000">NgbModule</text>
</g>
<!-- NgbModule&#45;&gt;ProjectsModule -->
<g id="edge4" class="edge">
<title>NgbModule&#45;&gt;ProjectsModule</title>
<path fill="none" stroke="#000000" d="M224,-122.0225C224,-139.3734 224,-163 224,-163 224,-163 277.7689,-163 277.7689,-163"/>
<polygon fill="#000000" stroke="#000000" points="277.7689,-166.5001 287.7689,-163 277.7688,-159.5001 277.7689,-166.5001"/>
</g>
<!-- ProjectService -->
<g id="node8" class="node">
<title>ProjectService</title>
<ellipse fill="#fdb462" stroke="#000000" cx="91" cy="-104" rx="67.1888" ry="18"/>
<text text-anchor="middle" x="91" y="-99.8" font-family="Times,serif" font-size="14.00" fill="#000000">ProjectService</text>
</g>
<!-- ProjectService&#45;&gt;ProjectsModule -->
<g id="edge7" class="edge">
<title>ProjectService&#45;&gt;ProjectsModule</title>
<path fill="none" stroke="#000000" d="M91,-122.2843C91,-143.3211 91,-175 91,-175 91,-175 277.8014,-175 277.8014,-175"/>
<polygon fill="#000000" stroke="#000000" points="277.8015,-178.5001 287.8014,-175 277.8014,-171.5001 277.8015,-178.5001"/>
</g>
</g>
</svg>
