<?xml version="1.0" encoding="UTF-8" standalone="no"?>
<!DOCTYPE svg PUBLIC "-//W3C//DTD SVG 1.1//EN"
 "http://www.w3.org/Graphics/SVG/1.1/DTD/svg11.dtd">
<!-- Generated by graphviz version 2.40.1 (20161225.0304)
 -->
<!-- Title: dependencies Pages: 1 -->
<svg width="646pt" height="284pt"
 viewBox="0.00 0.00 646.00 284.00" xmlns="http://www.w3.org/2000/svg" xmlns:xlink="http://www.w3.org/1999/xlink">
<g id="graph0" class="graph" transform="scale(1 1) rotate(0) translate(4 280)">
<title>dependencies</title>
<polygon fill="#ffffff" stroke="transparent" points="-4,4 -4,-280 642,-280 642,4 -4,4"/>
<text text-anchor="start" x="298.0091" y="-42.4" font-family="sans-serif" font-weight="bold" font-size="14.00" fill="#000000">Legend</text>
<polygon fill="#ffffb3" stroke="transparent" points="85,-10 85,-30 105,-30 105,-10 85,-10"/>
<text text-anchor="start" x="108.629" y="-15.4" font-family="sans-serif" font-size="14.00" fill="#000000"> &#160;Declarations</text>
<polygon fill="#8dd3c7" stroke="transparent" points="198,-10 198,-30 218,-30 218,-10 198,-10"/>
<text text-anchor="start" x="221.7251" y="-15.4" font-family="sans-serif" font-size="14.00" fill="#000000"> &#160;Module</text>
<polygon fill="#80b1d3" stroke="transparent" points="284,-10 284,-30 304,-30 304,-10 284,-10"/>
<text text-anchor="start" x="307.7812" y="-15.4" font-family="sans-serif" font-size="14.00" fill="#000000"> &#160;Bootstrap</text>
<polygon fill="#fdb462" stroke="transparent" points="381,-10 381,-30 401,-30 401,-10 381,-10"/>
<text text-anchor="start" x="404.6732" y="-15.4" font-family="sans-serif" font-size="14.00" fill="#000000"> &#160;Providers</text>
<polygon fill="#fb8072" stroke="transparent" points="477,-10 477,-30 497,-30 497,-10 477,-10"/>
<text text-anchor="start" x="500.7258" y="-15.4" font-family="sans-serif" font-size="14.00" fill="#000000"> &#160;Exports</text>
<g id="clust1" class="cluster">
<title>cluster_SharedModule</title>
<polygon fill="none" stroke="#000000" stroke-dasharray="1,5" points="8,-70 8,-268 630,-268 630,-70 8,-70"/>
</g>
<g id="clust2" class="cluster">
<title>cluster_SharedModule_declarations</title>
<polygon fill="none" stroke="#000000" points="268,-78 268,-130 622,-130 622,-78 268,-78"/>
</g>
<g id="clust5" class="cluster">
<title>cluster_SharedModule_imports</title>
<polygon fill="none" stroke="#000000" points="16,-78 16,-130 260,-130 260,-78 16,-78"/>
</g>
<g id="clust6" class="cluster">
<title>cluster_SharedModule_exports</title>
<polygon fill="none" stroke="#000000" points="101,-208 101,-260 463,-260 463,-208 101,-208"/>
</g>
<!-- LoadingSpinnerComponent -->
<g id="node1" class="node">
<title>LoadingSpinnerComponent</title>
<polygon fill="#ffffb3" stroke="#000000" points="613.5392,-122 442.4608,-122 442.4608,-86 613.5392,-86 613.5392,-122"/>
<text text-anchor="middle" x="528" y="-99.8" font-family="Times,serif" font-size="14.00" fill="#000000">LoadingSpinnerComponent</text>
</g>
<!-- SharedModule -->
<g id="node3" class="node">
<title>SharedModule</title>
<polygon fill="#8dd3c7" stroke="#000000" points="319.4231,-187 316.4231,-191 295.4231,-191 292.4231,-187 220.5769,-187 220.5769,-151 319.4231,-151 319.4231,-187"/>
<text text-anchor="middle" x="270" y="-164.8" font-family="Times,serif" font-size="14.00" fill="#000000">SharedModule</text>
</g>
<!-- LoadingSpinnerComponent&#45;&gt;SharedModule -->
<g id="edge1" class="edge">
<title>LoadingSpinnerComponent&#45;&gt;SharedModule</title>
<path fill="none" stroke="#000000" d="M448.375,-122.1061C448.375,-141.3391 448.375,-169 448.375,-169 448.375,-169 329.2139,-169 329.2139,-169"/>
<polygon fill="#000000" stroke="#000000" points="329.214,-165.5001 319.2139,-169 329.2139,-172.5001 329.214,-165.5001"/>
</g>
<!-- PageHeaderComponent -->
<g id="node2" class="node">
<title>PageHeaderComponent</title>
<polygon fill="#ffffb3" stroke="#000000" points="424.4552,-122 275.5448,-122 275.5448,-86 424.4552,-86 424.4552,-122"/>
<text text-anchor="middle" x="350" y="-99.8" font-family="Times,serif" font-size="14.00" fill="#000000">PageHeaderComponent</text>
</g>
<!-- PageHeaderComponent&#45;&gt;SharedModule -->
<g id="edge2" class="edge">
<title>PageHeaderComponent&#45;&gt;SharedModule</title>
<path fill="none" stroke="#000000" d="M297.3668,-122.1061C297.3668,-122.1061 297.3668,-140.991 297.3668,-140.991"/>
<polygon fill="#000000" stroke="#000000" points="293.8668,-140.9909 297.3668,-150.991 300.8668,-140.991 293.8668,-140.9909"/>
</g>
<!-- LoadingSpinnerComponent  -->
<g id="node6" class="node">
<title>LoadingSpinnerComponent </title>
<polygon fill="#fb8072" stroke="#000000" points="454.5386,-252 279.4614,-252 279.4614,-216 454.5386,-216 454.5386,-252"/>
<text text-anchor="middle" x="367" y="-229.8" font-family="Times,serif" font-size="14.00" fill="#000000">LoadingSpinnerComponent </text>
</g>
<!-- SharedModule&#45;&gt;LoadingSpinnerComponent  -->
<g id="edge5" class="edge">
<title>SharedModule&#45;&gt;LoadingSpinnerComponent </title>
<path fill="none" stroke="#000000" stroke-dasharray="5,2" d="M299.3459,-187.1061C299.3459,-187.1061 299.3459,-205.991 299.3459,-205.991"/>
<polygon fill="#000000" stroke="#000000" points="295.846,-205.9909 299.3459,-215.991 302.846,-205.991 295.846,-205.9909"/>
</g>
<!-- PageHeaderComponent  -->
<g id="node7" class="node">
<title>PageHeaderComponent </title>
<polygon fill="#fb8072" stroke="#000000" points="261.4559,-252 108.5441,-252 108.5441,-216 261.4559,-216 261.4559,-252"/>
<text text-anchor="middle" x="185" y="-229.8" font-family="Times,serif" font-size="14.00" fill="#000000">PageHeaderComponent </text>
</g>
<!-- SharedModule&#45;&gt;PageHeaderComponent  -->
<g id="edge6" class="edge">
<title>SharedModule&#45;&gt;PageHeaderComponent </title>
<path fill="none" stroke="#000000" stroke-dasharray="5,2" d="M241.0083,-187.1061C241.0083,-187.1061 241.0083,-205.991 241.0083,-205.991"/>
<polygon fill="#000000" stroke="#000000" points="237.5083,-205.9909 241.0083,-215.991 244.5083,-205.991 237.5083,-205.9909"/>
</g>
<!-- CommonModule -->
<g id="node4" class="node">
<title>CommonModule</title>
<polygon fill="#8dd3c7" stroke="#000000" points="251.6681,-122 248.6681,-126 227.6681,-126 224.6681,-122 140.3319,-122 140.3319,-86 251.6681,-86 251.6681,-122"/>
<text text-anchor="middle" x="196" y="-99.8" font-family="Times,serif" font-size="14.00" fill="#000000">CommonModule</text>
</g>
<!-- CommonModule&#45;&gt;SharedModule -->
<g id="edge3" class="edge">
<title>CommonModule&#45;&gt;SharedModule</title>
<path fill="none" stroke="#000000" d="M236.3114,-122.1061C236.3114,-122.1061 236.3114,-140.991 236.3114,-140.991"/>
<polygon fill="#000000" stroke="#000000" points="232.8114,-140.9909 236.3114,-150.991 239.8114,-140.991 232.8114,-140.9909"/>
</g>
<!-- RouterModule -->
<g id="node5" class="node">
<title>RouterModule</title>
<polygon fill="#8dd3c7" stroke="#000000" points="121.6528,-122 118.6528,-126 97.6528,-126 94.6528,-122 24.3472,-122 24.3472,-86 121.6528,-86 121.6528,-122"/>
<text text-anchor="middle" x="73" y="-99.8" font-family="Times,serif" font-size="14.00" fill="#000000">RouterModule</text>
</g>
<!-- RouterModule&#45;&gt;SharedModule -->
<g id="edge4" class="edge">
<title>RouterModule&#45;&gt;SharedModule</title>
<path fill="none" stroke="#000000" d="M115.2993,-122.1061C115.2993,-141.3391 115.2993,-169 115.2993,-169 115.2993,-169 210.6264,-169 210.6264,-169"/>
<polygon fill="#000000" stroke="#000000" points="210.6264,-172.5001 220.6264,-169 210.6263,-165.5001 210.6264,-172.5001"/>
</g>
</g>
</svg>
