<?xml version="1.0" encoding="UTF-8" standalone="no"?>
<!DOCTYPE svg PUBLIC "-//W3C//DTD SVG 1.1//EN"
 "http://www.w3.org/Graphics/SVG/1.1/DTD/svg11.dtd">
<!-- Generated by graphviz version 2.40.1 (20161225.0304)
 -->
<!-- Title: dependencies Pages: 1 -->
<svg width="985pt" height="211pt"
 viewBox="0.00 0.00 985.00 211.00" xmlns="http://www.w3.org/2000/svg" xmlns:xlink="http://www.w3.org/1999/xlink">
<g id="graph0" class="graph" transform="scale(1 1) rotate(0) translate(4 207)">
<title>dependencies</title>
<polygon fill="#ffffff" stroke="transparent" points="-4,4 -4,-207 981,-207 981,4 -4,4"/>
<text text-anchor="start" x="467.5091" y="-42.4" font-family="sans-serif" font-weight="bold" font-size="14.00" fill="#000000">Legend</text>
<polygon fill="#ffffb3" stroke="transparent" points="254.5,-10 254.5,-30 274.5,-30 274.5,-10 254.5,-10"/>
<text text-anchor="start" x="278.129" y="-15.4" font-family="sans-serif" font-size="14.00" fill="#000000"> &#160;Declarations</text>
<polygon fill="#8dd3c7" stroke="transparent" points="367.5,-10 367.5,-30 387.5,-30 387.5,-10 367.5,-10"/>
<text text-anchor="start" x="391.2251" y="-15.4" font-family="sans-serif" font-size="14.00" fill="#000000"> &#160;Module</text>
<polygon fill="#80b1d3" stroke="transparent" points="453.5,-10 453.5,-30 473.5,-30 473.5,-10 453.5,-10"/>
<text text-anchor="start" x="477.2812" y="-15.4" font-family="sans-serif" font-size="14.00" fill="#000000"> &#160;Bootstrap</text>
<polygon fill="#fdb462" stroke="transparent" points="550.5,-10 550.5,-30 570.5,-30 570.5,-10 550.5,-10"/>
<text text-anchor="start" x="574.1732" y="-15.4" font-family="sans-serif" font-size="14.00" fill="#000000"> &#160;Providers</text>
<polygon fill="#fb8072" stroke="transparent" points="646.5,-10 646.5,-30 666.5,-30 666.5,-10 646.5,-10"/>
<text text-anchor="start" x="670.2258" y="-15.4" font-family="sans-serif" font-size="14.00" fill="#000000"> &#160;Exports</text>
<g id="clust1" class="cluster">
<title>cluster_UsersModule</title>
<polygon fill="none" stroke="#000000" stroke-dasharray="1,5" points="8,-70 8,-195 969,-195 969,-70 8,-70"/>
</g>
<g id="clust2" class="cluster">
<title>cluster_UsersModule_declarations</title>
<polygon fill="none" stroke="#000000" points="645,-78 645,-130 961,-130 961,-78 645,-78"/>
</g>
<g id="clust5" class="cluster">
<title>cluster_UsersModule_imports</title>
<polygon fill="none" stroke="#000000" points="16,-78 16,-130 637,-130 637,-78 16,-78"/>
</g>
<!-- UsersListComponent -->
<g id="node1" class="node">
<title>UsersListComponent</title>
<polygon fill="#ffffb3" stroke="#000000" points="953.4818,-122 818.5182,-122 818.5182,-86 953.4818,-86 953.4818,-122"/>
<text text-anchor="middle" x="886" y="-99.8" font-family="Times,serif" font-size="14.00" fill="#000000">UsersListComponent</text>
</g>
<!-- UsersModule -->
<g id="node3" class="node">
<title>UsersModule</title>
<polygon fill="#8dd3c7" stroke="#000000" points="495.9218,-187 492.9218,-191 471.9218,-191 468.9218,-187 404.0782,-187 404.0782,-151 495.9218,-151 495.9218,-187"/>
<text text-anchor="middle" x="450" y="-164.8" font-family="Times,serif" font-size="14.00" fill="#000000">UsersModule</text>
</g>
<!-- UsersListComponent&#45;&gt;UsersModule -->
<g id="edge1" class="edge">
<title>UsersListComponent&#45;&gt;UsersModule</title>
<path fill="none" stroke="#000000" d="M886,-122.2921C886,-144.2057 886,-178 886,-178 886,-178 505.8356,-178 505.8356,-178"/>
<polygon fill="#000000" stroke="#000000" points="505.8356,-174.5001 495.8356,-178 505.8355,-181.5001 505.8356,-174.5001"/>
</g>
<!-- UserDetailsComponent -->
<g id="node2" class="node">
<title>UserDetailsComponent</title>
<polygon fill="#ffffb3" stroke="#000000" points="800.9116,-122 653.0884,-122 653.0884,-86 800.9116,-86 800.9116,-122"/>
<text text-anchor="middle" x="727" y="-99.8" font-family="Times,serif" font-size="14.00" fill="#000000">UserDetailsComponent</text>
</g>
<!-- UserDetailsComponent&#45;&gt;UsersModule -->
<g id="edge2" class="edge">
<title>UserDetailsComponent&#45;&gt;UsersModule</title>
<path fill="none" stroke="#000000" d="M727,-122.1061C727,-141.3391 727,-169 727,-169 727,-169 505.7409,-169 505.7409,-169"/>
<polygon fill="#000000" stroke="#000000" points="505.741,-165.5001 495.7409,-169 505.7409,-172.5001 505.741,-165.5001"/>
</g>
<!-- CommonModule -->
<g id="node4" class="node">
<title>CommonModule</title>
<polygon fill="#8dd3c7" stroke="#000000" points="628.6681,-122 625.6681,-126 604.6681,-126 601.6681,-122 517.3319,-122 517.3319,-86 628.6681,-86 628.6681,-122"/>
<text text-anchor="middle" x="573" y="-99.8" font-family="Times,serif" font-size="14.00" fill="#000000">CommonModule</text>
</g>
<!-- CommonModule&#45;&gt;UsersModule -->
<g id="edge3" class="edge">
<title>CommonModule&#45;&gt;UsersModule</title>
<path fill="none" stroke="#000000" d="M573,-122.027C573,-138.3976 573,-160 573,-160 573,-160 505.8007,-160 505.8007,-160"/>
<polygon fill="#000000" stroke="#000000" points="505.8007,-156.5001 495.8007,-160 505.8006,-163.5001 505.8007,-156.5001"/>
</g>
<!-- RouterModule -->
<g id="node5" class="node">
<title>RouterModule</title>
<polygon fill="#8dd3c7" stroke="#000000" points="498.6528,-122 495.6528,-126 474.6528,-126 471.6528,-122 401.3472,-122 401.3472,-86 498.6528,-86 498.6528,-122"/>
<text text-anchor="middle" x="450" y="-99.8" font-family="Times,serif" font-size="14.00" fill="#000000">RouterModule</text>
</g>
<!-- RouterModule&#45;&gt;UsersModule -->
<g id="edge4" class="edge">
<title>RouterModule&#45;&gt;UsersModule</title>
<path fill="none" stroke="#000000" d="M450,-122.1061C450,-122.1061 450,-140.991 450,-140.991"/>
<polygon fill="#000000" stroke="#000000" points="446.5001,-140.9909 450,-150.991 453.5001,-140.991 446.5001,-140.9909"/>
</g>
<!-- FormsModule -->
<g id="node6" class="node">
<title>FormsModule</title>
<polygon fill="#8dd3c7" stroke="#000000" points="383.8288,-122 380.8288,-126 359.8288,-126 356.8288,-122 288.1712,-122 288.1712,-86 383.8288,-86 383.8288,-122"/>
<text text-anchor="middle" x="336" y="-99.8" font-family="Times,serif" font-size="14.00" fill="#000000">FormsModule</text>
</g>
<!-- FormsModule&#45;&gt;UsersModule -->
<g id="edge5" class="edge">
<title>FormsModule&#45;&gt;UsersModule</title>
<path fill="none" stroke="#000000" d="M336,-122.027C336,-138.3976 336,-160 336,-160 336,-160 394.2887,-160 394.2887,-160"/>
<polygon fill="#000000" stroke="#000000" points="394.2887,-163.5001 404.2887,-160 394.2887,-156.5001 394.2887,-163.5001"/>
</g>
<!-- ReactiveFormsModule -->
<g id="node7" class="node">
<title>ReactiveFormsModule</title>
<polygon fill="#8dd3c7" stroke="#000000" points="270.3047,-122 267.3047,-126 246.3047,-126 243.3047,-122 125.6953,-122 125.6953,-86 270.3047,-86 270.3047,-122"/>
<text text-anchor="middle" x="198" y="-99.8" font-family="Times,serif" font-size="14.00" fill="#000000">ReactiveFormsModule</text>
</g>
<!-- ReactiveFormsModule&#45;&gt;UsersModule -->
<g id="edge6" class="edge">
<title>ReactiveFormsModule&#45;&gt;UsersModule</title>
<path fill="none" stroke="#000000" d="M198,-122.1061C198,-141.3391 198,-169 198,-169 198,-169 394.0723,-169 394.0723,-169"/>
<polygon fill="#000000" stroke="#000000" points="394.0724,-172.5001 404.0723,-169 394.0723,-165.5001 394.0724,-172.5001"/>
</g>
<!-- NgbModule -->
<g id="node8" class="node">
<title>NgbModule</title>
<polygon fill="#8dd3c7" stroke="#000000" points="107.6571,-122 104.6571,-126 83.6571,-126 80.6571,-122 24.3429,-122 24.3429,-86 107.6571,-86 107.6571,-122"/>
<text text-anchor="middle" x="66" y="-99.8" font-family="Times,serif" font-size="14.00" fill="#000000">NgbModule</text>
</g>
<!-- NgbModule&#45;&gt;UsersModule -->
<g id="edge7" class="edge">
<title>NgbModule&#45;&gt;UsersModule</title>
<path fill="none" stroke="#000000" d="M66,-122.2921C66,-144.2057 66,-178 66,-178 66,-178 394.062,-178 394.062,-178"/>
<polygon fill="#000000" stroke="#000000" points="394.0621,-181.5001 404.062,-178 394.062,-174.5001 394.0621,-181.5001"/>
</g>
</g>
</svg>
