<?xml version="1.0" encoding="UTF-8" standalone="no"?>
<!DOCTYPE svg PUBLIC "-//W3C//DTD SVG 1.1//EN"
 "http://www.w3.org/Graphics/SVG/1.1/DTD/svg11.dtd">
<!-- Generated by graphviz version 2.40.1 (20161225.0304)
 -->
<!-- Title: dependencies Pages: 1 -->
<svg width="1774pt" height="211pt"
 viewBox="0.00 0.00 1774.00 211.00" xmlns="http://www.w3.org/2000/svg" xmlns:xlink="http://www.w3.org/1999/xlink">
<g id="graph0" class="graph" transform="scale(1 1) rotate(0) translate(4 207)">
<title>dependencies</title>
<polygon fill="#ffffff" stroke="transparent" points="-4,4 -4,-207 1770,-207 1770,4 -4,4"/>
<text text-anchor="start" x="862.0091" y="-42.4" font-family="sans-serif" font-weight="bold" font-size="14.00" fill="#000000">Legend</text>
<polygon fill="#ffffb3" stroke="transparent" points="649,-10 649,-30 669,-30 669,-10 649,-10"/>
<text text-anchor="start" x="672.629" y="-15.4" font-family="sans-serif" font-size="14.00" fill="#000000"> &#160;Declarations</text>
<polygon fill="#8dd3c7" stroke="transparent" points="762,-10 762,-30 782,-30 782,-10 762,-10"/>
<text text-anchor="start" x="785.7251" y="-15.4" font-family="sans-serif" font-size="14.00" fill="#000000"> &#160;Module</text>
<polygon fill="#80b1d3" stroke="transparent" points="848,-10 848,-30 868,-30 868,-10 848,-10"/>
<text text-anchor="start" x="871.7812" y="-15.4" font-family="sans-serif" font-size="14.00" fill="#000000"> &#160;Bootstrap</text>
<polygon fill="#fdb462" stroke="transparent" points="945,-10 945,-30 965,-30 965,-10 945,-10"/>
<text text-anchor="start" x="968.6732" y="-15.4" font-family="sans-serif" font-size="14.00" fill="#000000"> &#160;Providers</text>
<polygon fill="#fb8072" stroke="transparent" points="1041,-10 1041,-30 1061,-30 1061,-10 1041,-10"/>
<text text-anchor="start" x="1064.7258" y="-15.4" font-family="sans-serif" font-size="14.00" fill="#000000"> &#160;Exports</text>
<g id="clust1" class="cluster">
<title>cluster_LayoutModule</title>
<polygon fill="none" stroke="#000000" stroke-dasharray="1,5" points="8,-70 8,-195 1758,-195 1758,-70 8,-70"/>
</g>
<g id="clust2" class="cluster">
<title>cluster_LayoutModule_declarations</title>
<polygon fill="none" stroke="#000000" points="650,-78 650,-130 1750,-130 1750,-78 650,-78"/>
</g>
<g id="clust9" class="cluster">
<title>cluster_LayoutModule_imports</title>
<polygon fill="none" stroke="#000000" points="174,-78 174,-130 642,-130 642,-78 174,-78"/>
</g>
<g id="clust12" class="cluster">
<title>cluster_LayoutModule_providers</title>
<polygon fill="none" stroke="#000000" points="16,-78 16,-130 166,-130 166,-78 16,-78"/>
</g>
<!-- Layout2Component -->
<g id="node1" class="node">
<title>Layout2Component</title>
<polygon fill="#ffffb3" stroke="#000000" points="1741.9902,-122 1614.0098,-122 1614.0098,-86 1741.9902,-86 1741.9902,-122"/>
<text text-anchor="middle" x="1678" y="-99.8" font-family="Times,serif" font-size="14.00" fill="#000000">Layout2Component</text>
</g>
<!-- LayoutModule -->
<g id="node7" class="node">
<title>LayoutModule</title>
<polygon fill="#8dd3c7" stroke="#000000" points="786.7078,-187 783.7078,-191 762.7078,-191 759.7078,-187 687.2922,-187 687.2922,-151 786.7078,-151 786.7078,-187"/>
<text text-anchor="middle" x="737" y="-164.8" font-family="Times,serif" font-size="14.00" fill="#000000">LayoutModule</text>
</g>
<!-- Layout2Component&#45;&gt;LayoutModule -->
<g id="edge1" class="edge">
<title>Layout2Component&#45;&gt;LayoutModule</title>
<path fill="none" stroke="#000000" d="M1678,-122.0908C1678,-145.1328 1678,-182 1678,-182 1678,-182 796.9279,-182 796.9279,-182"/>
<polygon fill="#000000" stroke="#000000" points="796.9279,-178.5001 786.9279,-182 796.9278,-185.5001 796.9279,-178.5001"/>
</g>
<!-- LayoutHorizontalSidenavComponent -->
<g id="node2" class="node">
<title>LayoutHorizontalSidenavComponent</title>
<polygon fill="#ffffb3" stroke="#000000" points="1595.9608,-122 1370.0392,-122 1370.0392,-86 1595.9608,-86 1595.9608,-122"/>
<text text-anchor="middle" x="1483" y="-99.8" font-family="Times,serif" font-size="14.00" fill="#000000">LayoutHorizontalSidenavComponent</text>
</g>
<!-- LayoutHorizontalSidenavComponent&#45;&gt;LayoutModule -->
<g id="edge2" class="edge">
<title>LayoutHorizontalSidenavComponent&#45;&gt;LayoutModule</title>
<path fill="none" stroke="#000000" d="M1483,-122.2843C1483,-143.3211 1483,-175 1483,-175 1483,-175 796.8148,-175 796.8148,-175"/>
<polygon fill="#000000" stroke="#000000" points="796.8149,-171.5001 786.8148,-175 796.8148,-178.5001 796.8149,-171.5001"/>
</g>
<!-- LayoutBlankComponent -->
<g id="node3" class="node">
<title>LayoutBlankComponent</title>
<polygon fill="#ffffb3" stroke="#000000" points="1352.4326,-122 1197.5674,-122 1197.5674,-86 1352.4326,-86 1352.4326,-122"/>
<text text-anchor="middle" x="1275" y="-99.8" font-family="Times,serif" font-size="14.00" fill="#000000">LayoutBlankComponent</text>
</g>
<!-- LayoutBlankComponent&#45;&gt;LayoutModule -->
<g id="edge3" class="edge">
<title>LayoutBlankComponent&#45;&gt;LayoutModule</title>
<path fill="none" stroke="#000000" d="M1275,-122.1061C1275,-141.3391 1275,-169 1275,-169 1275,-169 796.6494,-169 796.6494,-169"/>
<polygon fill="#000000" stroke="#000000" points="796.6494,-165.5001 786.6494,-169 796.6494,-172.5001 796.6494,-165.5001"/>
</g>
<!-- LayoutNavbarComponent -->
<g id="node4" class="node">
<title>LayoutNavbarComponent</title>
<polygon fill="#ffffb3" stroke="#000000" points="1180.1867,-122 1017.8133,-122 1017.8133,-86 1180.1867,-86 1180.1867,-122"/>
<text text-anchor="middle" x="1099" y="-99.8" font-family="Times,serif" font-size="14.00" fill="#000000">LayoutNavbarComponent</text>
</g>
<!-- LayoutNavbarComponent&#45;&gt;LayoutModule -->
<g id="edge4" class="edge">
<title>LayoutNavbarComponent&#45;&gt;LayoutModule</title>
<path fill="none" stroke="#000000" d="M1099,-122.0225C1099,-139.3734 1099,-163 1099,-163 1099,-163 796.9545,-163 796.9545,-163"/>
<polygon fill="#000000" stroke="#000000" points="796.9545,-159.5001 786.9545,-163 796.9544,-166.5001 796.9545,-159.5001"/>
</g>
<!-- LayoutSidenavComponent -->
<g id="node5" class="node">
<title>LayoutSidenavComponent</title>
<polygon fill="#ffffb3" stroke="#000000" points="1000.0926,-122 833.9074,-122 833.9074,-86 1000.0926,-86 1000.0926,-122"/>
<text text-anchor="middle" x="917" y="-99.8" font-family="Times,serif" font-size="14.00" fill="#000000">LayoutSidenavComponent</text>
</g>
<!-- LayoutSidenavComponent&#45;&gt;LayoutModule -->
<g id="edge5" class="edge">
<title>LayoutSidenavComponent&#45;&gt;LayoutModule</title>
<path fill="none" stroke="#000000" d="M917,-122.2396C917,-137.5706 917,-157 917,-157 917,-157 796.6623,-157 796.6623,-157"/>
<polygon fill="#000000" stroke="#000000" points="796.6623,-153.5001 786.6623,-157 796.6622,-160.5001 796.6623,-153.5001"/>
</g>
<!-- LayoutFooterComponent -->
<g id="node6" class="node">
<title>LayoutFooterComponent</title>
<polygon fill="#ffffb3" stroke="#000000" points="815.5393,-122 658.4607,-122 658.4607,-86 815.5393,-86 815.5393,-122"/>
<text text-anchor="middle" x="737" y="-99.8" font-family="Times,serif" font-size="14.00" fill="#000000">LayoutFooterComponent</text>
</g>
<!-- LayoutFooterComponent&#45;&gt;LayoutModule -->
<g id="edge6" class="edge">
<title>LayoutFooterComponent&#45;&gt;LayoutModule</title>
<path fill="none" stroke="#000000" d="M737,-122.1061C737,-122.1061 737,-140.991 737,-140.991"/>
<polygon fill="#000000" stroke="#000000" points="733.5001,-140.9909 737,-150.991 740.5001,-140.991 733.5001,-140.9909"/>
</g>
<!-- CommonModule -->
<g id="node8" class="node">
<title>CommonModule</title>
<polygon fill="#8dd3c7" stroke="#000000" points="633.6681,-122 630.6681,-126 609.6681,-126 606.6681,-122 522.3319,-122 522.3319,-86 633.6681,-86 633.6681,-122"/>
<text text-anchor="middle" x="578" y="-99.8" font-family="Times,serif" font-size="14.00" fill="#000000">CommonModule</text>
</g>
<!-- CommonModule&#45;&gt;LayoutModule -->
<g id="edge7" class="edge">
<title>CommonModule&#45;&gt;LayoutModule</title>
<path fill="none" stroke="#000000" d="M578,-122.2396C578,-137.5706 578,-157 578,-157 578,-157 677.1277,-157 677.1277,-157"/>
<polygon fill="#000000" stroke="#000000" points="677.1277,-160.5001 687.1277,-157 677.1276,-153.5001 677.1277,-160.5001"/>
</g>
<!-- RouterModule -->
<g id="node9" class="node">
<title>RouterModule</title>
<polygon fill="#8dd3c7" stroke="#000000" points="503.6528,-122 500.6528,-126 479.6528,-126 476.6528,-122 406.3472,-122 406.3472,-86 503.6528,-86 503.6528,-122"/>
<text text-anchor="middle" x="455" y="-99.8" font-family="Times,serif" font-size="14.00" fill="#000000">RouterModule</text>
</g>
<!-- RouterModule&#45;&gt;LayoutModule -->
<g id="edge8" class="edge">
<title>RouterModule&#45;&gt;LayoutModule</title>
<path fill="none" stroke="#000000" d="M455,-122.0225C455,-139.3734 455,-163 455,-163 455,-163 677.2332,-163 677.2332,-163"/>
<polygon fill="#000000" stroke="#000000" points="677.2332,-166.5001 687.2332,-163 677.2332,-159.5001 677.2332,-166.5001"/>
</g>
<!-- NgbModule -->
<g id="node10" class="node">
<title>NgbModule</title>
<polygon fill="#8dd3c7" stroke="#000000" points="387.6571,-122 384.6571,-126 363.6571,-126 360.6571,-122 304.3429,-122 304.3429,-86 387.6571,-86 387.6571,-122"/>
<text text-anchor="middle" x="346" y="-99.8" font-family="Times,serif" font-size="14.00" fill="#000000">NgbModule</text>
</g>
<!-- NgbModule&#45;&gt;LayoutModule -->
<g id="edge9" class="edge">
<title>NgbModule&#45;&gt;LayoutModule</title>
<path fill="none" stroke="#000000" d="M346,-122.1061C346,-141.3391 346,-169 346,-169 346,-169 677.0824,-169 677.0824,-169"/>
<polygon fill="#000000" stroke="#000000" points="677.0825,-172.5001 687.0824,-169 677.0824,-165.5001 677.0825,-172.5001"/>
</g>
<!-- SidenavModule -->
<g id="node11" class="node">
<title>SidenavModule</title>
<polygon fill="#8dd3c7" stroke="#000000" points="286.1528,-122 283.1528,-126 262.1528,-126 259.1528,-122 181.8472,-122 181.8472,-86 286.1528,-86 286.1528,-122"/>
<text text-anchor="middle" x="234" y="-99.8" font-family="Times,serif" font-size="14.00" fill="#000000">SidenavModule</text>
</g>
<!-- SidenavModule&#45;&gt;LayoutModule -->
<g id="edge10" class="edge">
<title>SidenavModule&#45;&gt;LayoutModule</title>
<path fill="none" stroke="#000000" d="M234,-122.2843C234,-143.3211 234,-175 234,-175 234,-175 677.3938,-175 677.3938,-175"/>
<polygon fill="#000000" stroke="#000000" points="677.3939,-178.5001 687.3938,-175 677.3938,-171.5001 677.3939,-178.5001"/>
</g>
<!-- LayoutService -->
<g id="node12" class="node">
<title>LayoutService</title>
<ellipse fill="#fdb462" stroke="#000000" cx="91" cy="-104" rx="67.1946" ry="18"/>
<text text-anchor="middle" x="91" y="-99.8" font-family="Times,serif" font-size="14.00" fill="#000000">LayoutService</text>
</g>
<!-- LayoutService&#45;&gt;LayoutModule -->
<g id="edge11" class="edge">
<title>LayoutService&#45;&gt;LayoutModule</title>
<path fill="none" stroke="#000000" d="M91,-122.0908C91,-145.1328 91,-182 91,-182 91,-182 677.3821,-182 677.3821,-182"/>
<polygon fill="#000000" stroke="#000000" points="677.3822,-185.5001 687.3821,-182 677.3821,-178.5001 677.3822,-185.5001"/>
</g>
</g>
</svg>
