<?xml version="1.0" encoding="UTF-8" standalone="no"?>
<!DOCTYPE svg PUBLIC "-//W3C//DTD SVG 1.1//EN"
 "http://www.w3.org/Graphics/SVG/1.1/DTD/svg11.dtd">
<!-- Generated by graphviz version 2.40.1 (20161225.0304)
 -->
<!-- Title: dependencies Pages: 1 -->
<svg width="3859pt" height="284pt"
 viewBox="0.00 0.00 3859.00 284.00" xmlns="http://www.w3.org/2000/svg" xmlns:xlink="http://www.w3.org/1999/xlink">
<g id="graph0" class="graph" transform="scale(1 1) rotate(0) translate(4 280)">
<title>dependencies</title>
<polygon fill="#ffffff" stroke="transparent" points="-4,4 -4,-280 3855,-280 3855,4 -4,4"/>
<text text-anchor="start" x="1904.5091" y="-42.4" font-family="sans-serif" font-weight="bold" font-size="14.00" fill="#000000">Legend</text>
<polygon fill="#ffffb3" stroke="transparent" points="1691.5,-10 1691.5,-30 1711.5,-30 1711.5,-10 1691.5,-10"/>
<text text-anchor="start" x="1715.129" y="-15.4" font-family="sans-serif" font-size="14.00" fill="#000000"> &#160;Declarations</text>
<polygon fill="#8dd3c7" stroke="transparent" points="1804.5,-10 1804.5,-30 1824.5,-30 1824.5,-10 1804.5,-10"/>
<text text-anchor="start" x="1828.2251" y="-15.4" font-family="sans-serif" font-size="14.00" fill="#000000"> &#160;Module</text>
<polygon fill="#80b1d3" stroke="transparent" points="1890.5,-10 1890.5,-30 1910.5,-30 1910.5,-10 1890.5,-10"/>
<text text-anchor="start" x="1914.2812" y="-15.4" font-family="sans-serif" font-size="14.00" fill="#000000"> &#160;Bootstrap</text>
<polygon fill="#fdb462" stroke="transparent" points="1987.5,-10 1987.5,-30 2007.5,-30 2007.5,-10 1987.5,-10"/>
<text text-anchor="start" x="2011.1732" y="-15.4" font-family="sans-serif" font-size="14.00" fill="#000000"> &#160;Providers</text>
<polygon fill="#fb8072" stroke="transparent" points="2083.5,-10 2083.5,-30 2103.5,-30 2103.5,-10 2083.5,-10"/>
<text text-anchor="start" x="2107.2258" y="-15.4" font-family="sans-serif" font-size="14.00" fill="#000000"> &#160;Exports</text>
<g id="clust1" class="cluster">
<title>cluster_AppModule</title>
<polygon fill="none" stroke="#000000" stroke-dasharray="1,5" points="8,-70 8,-268 3843,-268 3843,-70 8,-70"/>
</g>
<g id="clust2" class="cluster">
<title>cluster_AppModule_declarations</title>
<polygon fill="none" stroke="#000000" points="3557,-78 3557,-130 3835,-130 3835,-78 3557,-78"/>
</g>
<g id="clust5" class="cluster">
<title>cluster_AppModule_imports</title>
<polygon fill="none" stroke="#000000" points="866,-78 866,-130 3549,-130 3549,-78 866,-78"/>
</g>
<g id="clust7" class="cluster">
<title>cluster_AppModule_bootstrap</title>
<polygon fill="none" stroke="#000000" points="1867,-208 1867,-260 1991,-260 1991,-208 1867,-208"/>
</g>
<g id="clust8" class="cluster">
<title>cluster_AppModule_providers</title>
<polygon fill="none" stroke="#000000" points="16,-78 16,-130 858,-130 858,-78 16,-78"/>
</g>
<!-- AppComponent -->
<g id="node1" class="node">
<title>AppComponent</title>
<polygon fill="#ffffb3" stroke="#000000" points="3826.9399,-122 3721.0601,-122 3721.0601,-86 3826.9399,-86 3826.9399,-122"/>
<text text-anchor="middle" x="3774" y="-99.8" font-family="Times,serif" font-size="14.00" fill="#000000">AppComponent</text>
</g>
<!-- AppModule -->
<g id="node3" class="node">
<title>AppModule</title>
<polygon fill="#8dd3c7" stroke="#000000" points="1970.6571,-187 1967.6571,-191 1946.6571,-191 1943.6571,-187 1887.3429,-187 1887.3429,-151 1970.6571,-151 1970.6571,-187"/>
<text text-anchor="middle" x="1929" y="-164.8" font-family="Times,serif" font-size="14.00" fill="#000000">AppModule</text>
</g>
<!-- AppComponent&#45;&gt;AppModule -->
<g id="edge1" class="edge">
<title>AppComponent&#45;&gt;AppModule</title>
<path fill="none" stroke="#000000" d="M3774,-122.1532C3774,-145.7566 3774,-184 3774,-184 3774,-184 1981.0019,-184 1981.0019,-184"/>
<polygon fill="#000000" stroke="#000000" points="1981.002,-180.5001 1971.0019,-184 1981.0019,-187.5001 1981.002,-180.5001"/>
</g>
<!-- NotFoundComponent -->
<g id="node2" class="node">
<title>NotFoundComponent</title>
<polygon fill="#ffffb3" stroke="#000000" points="3703.1122,-122 3564.8878,-122 3564.8878,-86 3703.1122,-86 3703.1122,-122"/>
<text text-anchor="middle" x="3634" y="-99.8" font-family="Times,serif" font-size="14.00" fill="#000000">NotFoundComponent</text>
</g>
<!-- NotFoundComponent&#45;&gt;AppModule -->
<g id="edge2" class="edge">
<title>NotFoundComponent&#45;&gt;AppModule</title>
<path fill="none" stroke="#000000" d="M3634,-122.2479C3634,-145.0179 3634,-181 3634,-181 3634,-181 1980.7229,-181 1980.7229,-181"/>
<polygon fill="#000000" stroke="#000000" points="1980.7229,-177.5001 1970.7229,-181 1980.7229,-184.5001 1980.7229,-177.5001"/>
</g>
<!-- AppComponent  -->
<g id="node21" class="node">
<title>AppComponent </title>
<polygon fill="#80b1d3" stroke="#000000" points="1983.439,-252 1874.561,-252 1874.561,-216 1983.439,-216 1983.439,-252"/>
<text text-anchor="middle" x="1929" y="-229.8" font-family="Times,serif" font-size="14.00" fill="#000000">AppComponent </text>
</g>
<!-- AppModule&#45;&gt;AppComponent  -->
<g id="edge20" class="edge">
<title>AppModule&#45;&gt;AppComponent </title>
<path fill="none" stroke="#000000" stroke-dasharray="1,5" d="M1929,-187.1061C1929,-187.1061 1929,-205.991 1929,-205.991"/>
<polygon fill="#000000" stroke="#000000" points="1925.5001,-205.9909 1929,-215.991 1932.5001,-205.991 1925.5001,-205.9909"/>
</g>
<!-- BrowserModule -->
<g id="node4" class="node">
<title>BrowserModule</title>
<polygon fill="#8dd3c7" stroke="#000000" points="3541.4734,-122 3538.4734,-126 3517.4734,-126 3514.4734,-122 3434.5266,-122 3434.5266,-86 3541.4734,-86 3541.4734,-122"/>
<text text-anchor="middle" x="3488" y="-99.8" font-family="Times,serif" font-size="14.00" fill="#000000">BrowserModule</text>
</g>
<!-- BrowserModule&#45;&gt;AppModule -->
<g id="edge3" class="edge">
<title>BrowserModule&#45;&gt;AppModule</title>
<path fill="none" stroke="#000000" d="M3488,-122.2921C3488,-144.2057 3488,-178 3488,-178 3488,-178 1980.6995,-178 1980.6995,-178"/>
<polygon fill="#000000" stroke="#000000" points="1980.6995,-174.5001 1970.6995,-178 1980.6994,-181.5001 1980.6995,-174.5001"/>
</g>
<!-- BrowserAnimationsModule -->
<g id="node5" class="node">
<title>BrowserAnimationsModule</title>
<polygon fill="#8dd3c7" stroke="#000000" points="3416.3019,-122 3413.3019,-126 3392.3019,-126 3389.3019,-122 3243.6981,-122 3243.6981,-86 3416.3019,-86 3416.3019,-122"/>
<text text-anchor="middle" x="3330" y="-99.8" font-family="Times,serif" font-size="14.00" fill="#000000">BrowserAnimationsModule</text>
</g>
<!-- BrowserAnimationsModule&#45;&gt;AppModule -->
<g id="edge4" class="edge">
<title>BrowserAnimationsModule&#45;&gt;AppModule</title>
<path fill="none" stroke="#000000" d="M3330,-122.0267C3330,-142.7672 3330,-174 3330,-174 3330,-174 1980.9291,-174 1980.9291,-174"/>
<polygon fill="#000000" stroke="#000000" points="1980.9292,-170.5001 1970.9291,-174 1980.9291,-177.5001 1980.9292,-170.5001"/>
</g>
<!-- LayoutModule -->
<g id="node6" class="node">
<title>LayoutModule</title>
<polygon fill="#8dd3c7" stroke="#000000" points="3225.7078,-122 3222.7078,-126 3201.7078,-126 3198.7078,-122 3126.2922,-122 3126.2922,-86 3225.7078,-86 3225.7078,-122"/>
<text text-anchor="middle" x="3176" y="-99.8" font-family="Times,serif" font-size="14.00" fill="#000000">LayoutModule</text>
</g>
<!-- LayoutModule&#45;&gt;AppModule -->
<g id="edge5" class="edge">
<title>LayoutModule&#45;&gt;AppModule</title>
<path fill="none" stroke="#000000" d="M3176,-122.308C3176,-142.1455 3176,-171 3176,-171 3176,-171 1980.8465,-171 1980.8465,-171"/>
<polygon fill="#000000" stroke="#000000" points="1980.8465,-167.5001 1970.8465,-171 1980.8465,-174.5001 1980.8465,-167.5001"/>
</g>
<!-- ToastrModule.forRoot(args) -->
<g id="node7" class="node">
<title>ToastrModule.forRoot(args)</title>
<polygon fill="#8dd3c7" stroke="#000000" points="3108.5022,-122 3105.5022,-126 3084.5022,-126 3081.5022,-122 2933.4978,-122 2933.4978,-86 3108.5022,-86 3108.5022,-122"/>
<text text-anchor="middle" x="3021" y="-99.8" font-family="Times,serif" font-size="14.00" fill="#000000">ToastrModule.forRoot(args)</text>
</g>
<!-- ToastrModule.forRoot(args)&#45;&gt;AppModule -->
<g id="edge6" class="edge">
<title>ToastrModule.forRoot(args)&#45;&gt;AppModule</title>
<path fill="none" stroke="#000000" d="M3021,-122.1686C3021,-141.0898 3021,-168 3021,-168 3021,-168 1980.8058,-168 1980.8058,-168"/>
<polygon fill="#000000" stroke="#000000" points="1980.8059,-164.5001 1970.8058,-168 1980.8058,-171.5001 1980.8059,-164.5001"/>
</g>
<!-- ConfirmationPopoverModule.forRoot() -->
<g id="node8" class="node">
<title>ConfirmationPopoverModule.forRoot()</title>
<polygon fill="#8dd3c7" stroke="#000000" points="2915.012,-122 2912.012,-126 2891.012,-126 2888.012,-122 2676.988,-122 2676.988,-86 2915.012,-86 2915.012,-122"/>
<text text-anchor="middle" x="2796" y="-99.8" font-family="Times,serif" font-size="14.00" fill="#000000">ConfirmationPopoverModule.forRoot()</text>
</g>
<!-- ConfirmationPopoverModule.forRoot()&#45;&gt;AppModule -->
<g id="edge7" class="edge">
<title>ConfirmationPopoverModule.forRoot()&#45;&gt;AppModule</title>
<path fill="none" stroke="#000000" d="M2796,-122.302C2796,-140.2699 2796,-165 2796,-165 2796,-165 1980.8172,-165 1980.8172,-165"/>
<polygon fill="#000000" stroke="#000000" points="1980.8172,-161.5001 1970.8172,-165 1980.8172,-168.5001 1980.8172,-161.5001"/>
</g>
<!-- NgSelectModule -->
<g id="node9" class="node">
<title>NgSelectModule</title>
<polygon fill="#8dd3c7" stroke="#000000" points="2659.3641,-122 2656.3641,-126 2635.3641,-126 2632.3641,-122 2548.6359,-122 2548.6359,-86 2659.3641,-86 2659.3641,-122"/>
<text text-anchor="middle" x="2604" y="-99.8" font-family="Times,serif" font-size="14.00" fill="#000000">NgSelectModule</text>
</g>
<!-- NgSelectModule&#45;&gt;AppModule -->
<g id="edge8" class="edge">
<title>NgSelectModule&#45;&gt;AppModule</title>
<path fill="none" stroke="#000000" d="M2604,-122.0352C2604,-138.7344 2604,-161 2604,-161 2604,-161 1980.7149,-161 1980.7149,-161"/>
<polygon fill="#000000" stroke="#000000" points="1980.7149,-157.5001 1970.7149,-161 1980.7148,-164.5001 1980.7149,-157.5001"/>
</g>
<!-- AngularFireModule.initializeApp(args) -->
<g id="node10" class="node">
<title>AngularFireModule.initializeApp(args)</title>
<polygon fill="#8dd3c7" stroke="#000000" points="2530.7057,-122 2527.7057,-126 2506.7057,-126 2503.7057,-122 2293.2943,-122 2293.2943,-86 2530.7057,-86 2530.7057,-122"/>
<text text-anchor="middle" x="2412" y="-99.8" font-family="Times,serif" font-size="14.00" fill="#000000">AngularFireModule.initializeApp(args)</text>
</g>
<!-- AngularFireModule.initializeApp(args)&#45;&gt;AppModule -->
<g id="edge9" class="edge">
<title>AngularFireModule.initializeApp(args)&#45;&gt;AppModule</title>
<path fill="none" stroke="#000000" d="M2412,-122.2819C2412,-137.9478 2412,-158 2412,-158 2412,-158 1981.0181,-158 1981.0181,-158"/>
<polygon fill="#000000" stroke="#000000" points="1981.0182,-154.5001 1971.0181,-158 1981.0181,-161.5001 1981.0182,-154.5001"/>
</g>
<!-- AngularFireAuthModule -->
<g id="node11" class="node">
<title>AngularFireAuthModule</title>
<polygon fill="#8dd3c7" stroke="#000000" points="2274.9678,-122 2271.9678,-126 2250.9678,-126 2247.9678,-122 2119.0322,-122 2119.0322,-86 2274.9678,-86 2274.9678,-122"/>
<text text-anchor="middle" x="2197" y="-99.8" font-family="Times,serif" font-size="14.00" fill="#000000">AngularFireAuthModule</text>
</g>
<!-- AngularFireAuthModule&#45;&gt;AppModule -->
<g id="edge10" class="edge">
<title>AngularFireAuthModule&#45;&gt;AppModule</title>
<path fill="none" stroke="#000000" d="M2197,-122.1243C2197,-136.7832 2197,-155 2197,-155 2197,-155 1980.875,-155 1980.875,-155"/>
<polygon fill="#000000" stroke="#000000" points="1980.875,-151.5001 1970.875,-155 1980.875,-158.5001 1980.875,-151.5001"/>
</g>
<!-- AngularFirestoreModule -->
<g id="node12" class="node">
<title>AngularFirestoreModule</title>
<polygon fill="#8dd3c7" stroke="#000000" points="2100.6811,-122 2097.6811,-126 2076.6811,-126 2073.6811,-122 1945.3189,-122 1945.3189,-86 2100.6811,-86 2100.6811,-122"/>
<text text-anchor="middle" x="2023" y="-99.8" font-family="Times,serif" font-size="14.00" fill="#000000">AngularFirestoreModule</text>
</g>
<!-- AngularFirestoreModule&#45;&gt;AppModule -->
<g id="edge11" class="edge">
<title>AngularFirestoreModule&#45;&gt;AppModule</title>
<path fill="none" stroke="#000000" d="M1958.1189,-122.1061C1958.1189,-122.1061 1958.1189,-140.991 1958.1189,-140.991"/>
<polygon fill="#000000" stroke="#000000" points="1954.6189,-140.9909 1958.1189,-150.991 1961.6189,-140.991 1954.6189,-140.9909"/>
</g>
<!-- AngularFireFunctionsModule -->
<g id="node13" class="node">
<title>AngularFireFunctionsModule</title>
<polygon fill="#8dd3c7" stroke="#000000" points="1927.6937,-122 1924.6937,-126 1903.6937,-126 1900.6937,-122 1744.3063,-122 1744.3063,-86 1927.6937,-86 1927.6937,-122"/>
<text text-anchor="middle" x="1836" y="-99.8" font-family="Times,serif" font-size="14.00" fill="#000000">AngularFireFunctionsModule</text>
</g>
<!-- AngularFireFunctionsModule&#45;&gt;AppModule -->
<g id="edge12" class="edge">
<title>AngularFireFunctionsModule&#45;&gt;AppModule</title>
<path fill="none" stroke="#000000" d="M1907.3843,-122.1061C1907.3843,-122.1061 1907.3843,-140.991 1907.3843,-140.991"/>
<polygon fill="#000000" stroke="#000000" points="1903.8844,-140.9909 1907.3843,-150.991 1910.8844,-140.991 1903.8844,-140.9909"/>
</g>
<!-- AuthModule -->
<g id="node14" class="node">
<title>AuthModule</title>
<polygon fill="#8dd3c7" stroke="#000000" points="1726.5482,-122 1723.5482,-126 1702.5482,-126 1699.5482,-122 1639.4518,-122 1639.4518,-86 1726.5482,-86 1726.5482,-122"/>
<text text-anchor="middle" x="1683" y="-99.8" font-family="Times,serif" font-size="14.00" fill="#000000">AuthModule</text>
</g>
<!-- AuthModule&#45;&gt;AppModule -->
<g id="edge13" class="edge">
<title>AuthModule&#45;&gt;AppModule</title>
<path fill="none" stroke="#000000" d="M1683,-122.1243C1683,-136.7832 1683,-155 1683,-155 1683,-155 1877.2695,-155 1877.2695,-155"/>
<polygon fill="#000000" stroke="#000000" points="1877.2695,-158.5001 1887.2695,-155 1877.2694,-151.5001 1877.2695,-158.5001"/>
</g>
<!-- HomeModule -->
<g id="node15" class="node">
<title>HomeModule</title>
<polygon fill="#8dd3c7" stroke="#000000" points="1620.7619,-122 1617.7619,-126 1596.7619,-126 1593.7619,-122 1527.2381,-122 1527.2381,-86 1620.7619,-86 1620.7619,-122"/>
<text text-anchor="middle" x="1574" y="-99.8" font-family="Times,serif" font-size="14.00" fill="#000000">HomeModule</text>
</g>
<!-- HomeModule&#45;&gt;AppModule -->
<g id="edge14" class="edge">
<title>HomeModule&#45;&gt;AppModule</title>
<path fill="none" stroke="#000000" d="M1574,-122.2819C1574,-137.9478 1574,-158 1574,-158 1574,-158 1877.2331,-158 1877.2331,-158"/>
<polygon fill="#000000" stroke="#000000" points="1877.2331,-161.5001 1887.2331,-158 1877.233,-154.5001 1877.2331,-161.5001"/>
</g>
<!-- UsersModule -->
<g id="node16" class="node">
<title>UsersModule</title>
<polygon fill="#8dd3c7" stroke="#000000" points="1508.9218,-122 1505.9218,-126 1484.9218,-126 1481.9218,-122 1417.0782,-122 1417.0782,-86 1508.9218,-86 1508.9218,-122"/>
<text text-anchor="middle" x="1463" y="-99.8" font-family="Times,serif" font-size="14.00" fill="#000000">UsersModule</text>
</g>
<!-- UsersModule&#45;&gt;AppModule -->
<g id="edge15" class="edge">
<title>UsersModule&#45;&gt;AppModule</title>
<path fill="none" stroke="#000000" d="M1463,-122.0352C1463,-138.7344 1463,-161 1463,-161 1463,-161 1877.2355,-161 1877.2355,-161"/>
<polygon fill="#000000" stroke="#000000" points="1877.2355,-164.5001 1887.2355,-161 1877.2355,-157.5001 1877.2355,-164.5001"/>
</g>
<!-- ProjectsModule -->
<g id="node17" class="node">
<title>ProjectsModule</title>
<polygon fill="#8dd3c7" stroke="#000000" points="1399.1486,-122 1396.1486,-126 1375.1486,-126 1372.1486,-122 1294.8514,-122 1294.8514,-86 1399.1486,-86 1399.1486,-122"/>
<text text-anchor="middle" x="1347" y="-99.8" font-family="Times,serif" font-size="14.00" fill="#000000">ProjectsModule</text>
</g>
<!-- ProjectsModule&#45;&gt;AppModule -->
<g id="edge16" class="edge">
<title>ProjectsModule&#45;&gt;AppModule</title>
<path fill="none" stroke="#000000" d="M1347,-122.302C1347,-140.2699 1347,-165 1347,-165 1347,-165 1877.144,-165 1877.144,-165"/>
<polygon fill="#000000" stroke="#000000" points="1877.144,-168.5001 1887.144,-165 1877.144,-161.5001 1877.144,-168.5001"/>
</g>
<!-- ProfileModule -->
<g id="node18" class="node">
<title>ProfileModule</title>
<polygon fill="#8dd3c7" stroke="#000000" points="1276.65,-122 1273.65,-126 1252.65,-126 1249.65,-122 1179.35,-122 1179.35,-86 1276.65,-86 1276.65,-122"/>
<text text-anchor="middle" x="1228" y="-99.8" font-family="Times,serif" font-size="14.00" fill="#000000">ProfileModule</text>
</g>
<!-- ProfileModule&#45;&gt;AppModule -->
<g id="edge17" class="edge">
<title>ProfileModule&#45;&gt;AppModule</title>
<path fill="none" stroke="#000000" d="M1228,-122.1686C1228,-141.0898 1228,-168 1228,-168 1228,-168 1877.2486,-168 1877.2486,-168"/>
<polygon fill="#000000" stroke="#000000" points="1877.2486,-171.5001 1887.2486,-168 1877.2485,-164.5001 1877.2486,-171.5001"/>
</g>
<!-- ToolsModule -->
<g id="node19" class="node">
<title>ToolsModule</title>
<polygon fill="#8dd3c7" stroke="#000000" points="1160.9387,-122 1157.9387,-126 1136.9387,-126 1133.9387,-122 1069.0613,-122 1069.0613,-86 1160.9387,-86 1160.9387,-122"/>
<text text-anchor="middle" x="1115" y="-99.8" font-family="Times,serif" font-size="14.00" fill="#000000">ToolsModule</text>
</g>
<!-- ToolsModule&#45;&gt;AppModule -->
<g id="edge18" class="edge">
<title>ToolsModule&#45;&gt;AppModule</title>
<path fill="none" stroke="#000000" d="M1115,-122.308C1115,-142.1455 1115,-171 1115,-171 1115,-171 1877.2326,-171 1877.2326,-171"/>
<polygon fill="#000000" stroke="#000000" points="1877.2327,-174.5001 1887.2326,-171 1877.2326,-167.5001 1877.2327,-174.5001"/>
</g>
<!-- RouterModule.forRoot(args) -->
<g id="node20" class="node">
<title>RouterModule.forRoot(args)</title>
<polygon fill="#8dd3c7" stroke="#000000" points="1051.8419,-122 1048.8419,-126 1027.8419,-126 1024.8419,-122 874.1581,-122 874.1581,-86 1051.8419,-86 1051.8419,-122"/>
<text text-anchor="middle" x="963" y="-99.8" font-family="Times,serif" font-size="14.00" fill="#000000">RouterModule.forRoot(args)</text>
</g>
<!-- RouterModule.forRoot(args)&#45;&gt;AppModule -->
<g id="edge19" class="edge">
<title>RouterModule.forRoot(args)&#45;&gt;AppModule</title>
<path fill="none" stroke="#000000" d="M963,-122.0267C963,-142.7672 963,-174 963,-174 963,-174 1877.1821,-174 1877.1821,-174"/>
<polygon fill="#000000" stroke="#000000" points="1877.1822,-177.5001 1887.1821,-174 1877.1821,-170.5001 1877.1822,-177.5001"/>
</g>
<!-- Title -->
<g id="node22" class="node">
<title>Title</title>
<ellipse fill="#fdb462" stroke="#000000" cx="821" cy="-104" rx="29.049" ry="18"/>
<text text-anchor="middle" x="821" y="-99.8" font-family="Times,serif" font-size="14.00" fill="#000000">Title</text>
</g>
<!-- Title&#45;&gt;AppModule -->
<g id="edge21" class="edge">
<title>Title&#45;&gt;AppModule</title>
<path fill="none" stroke="#000000" d="M821,-122.2921C821,-144.2057 821,-178 821,-178 821,-178 1877.2533,-178 1877.2533,-178"/>
<polygon fill="#000000" stroke="#000000" points="1877.2533,-181.5001 1887.2533,-178 1877.2533,-174.5001 1877.2533,-181.5001"/>
</g>
<!-- AppService -->
<g id="node23" class="node">
<title>AppService</title>
<ellipse fill="#fdb462" stroke="#000000" cx="717" cy="-104" rx="56.7406" ry="18"/>
<text text-anchor="middle" x="717" y="-99.8" font-family="Times,serif" font-size="14.00" fill="#000000">AppService</text>
</g>
<!-- AppService&#45;&gt;AppModule -->
<g id="edge22" class="edge">
<title>AppService&#45;&gt;AppModule</title>
<path fill="none" stroke="#000000" d="M717,-122.2479C717,-145.0179 717,-181 717,-181 717,-181 1877.2802,-181 1877.2802,-181"/>
<polygon fill="#000000" stroke="#000000" points="1877.2803,-184.5001 1887.2802,-181 1877.2802,-177.5001 1877.2803,-184.5001"/>
</g>
<!-- { provide: NgbDateParserFormatter, useClass: NgbDateFRParserFormatter } -->
<g id="node24" class="node">
<title>{ provide: NgbDateParserFormatter, useClass: NgbDateFRParserFormatter }</title>
<ellipse fill="#fdb462" stroke="#000000" cx="333" cy="-104" rx="309.2679" ry="18"/>
<text text-anchor="middle" x="333" y="-99.8" font-family="Times,serif" font-size="14.00" fill="#000000">{ provide: NgbDateParserFormatter, useClass: NgbDateFRParserFormatter }</text>
</g>
<!-- { provide: NgbDateParserFormatter, useClass: NgbDateFRParserFormatter }&#45;&gt;AppModule -->
<g id="edge23" class="edge">
<title>{ provide: NgbDateParserFormatter, useClass: NgbDateFRParserFormatter }&#45;&gt;AppModule</title>
<path fill="none" stroke="#000000" d="M333,-122.1532C333,-145.7566 333,-184 333,-184 333,-184 1877.1312,-184 1877.1312,-184"/>
<polygon fill="#000000" stroke="#000000" points="1877.1313,-187.5001 1887.1312,-184 1877.1312,-180.5001 1877.1313,-187.5001"/>
</g>
</g>
</svg>
