<?xml version="1.0" encoding="UTF-8" standalone="no"?>
<!DOCTYPE svg PUBLIC "-//W3C//DTD SVG 1.1//EN"
 "http://www.w3.org/Graphics/SVG/1.1/DTD/svg11.dtd">
<!-- Generated by graphviz version 2.40.1 (20161225.0304)
 -->
<!-- Title: dependencies Pages: 1 -->
<svg width="981pt" height="284pt"
 viewBox="0.00 0.00 981.00 284.00" xmlns="http://www.w3.org/2000/svg" xmlns:xlink="http://www.w3.org/1999/xlink">
<g id="graph0" class="graph" transform="scale(1 1) rotate(0) translate(4 280)">
<title>dependencies</title>
<polygon fill="#ffffff" stroke="transparent" points="-4,4 -4,-280 977,-280 977,4 -4,4"/>
<text text-anchor="start" x="465.5091" y="-42.4" font-family="sans-serif" font-weight="bold" font-size="14.00" fill="#000000">Legend</text>
<polygon fill="#ffffb3" stroke="transparent" points="252.5,-10 252.5,-30 272.5,-30 272.5,-10 252.5,-10"/>
<text text-anchor="start" x="276.129" y="-15.4" font-family="sans-serif" font-size="14.00" fill="#000000"> &#160;Declarations</text>
<polygon fill="#8dd3c7" stroke="transparent" points="365.5,-10 365.5,-30 385.5,-30 385.5,-10 365.5,-10"/>
<text text-anchor="start" x="389.2251" y="-15.4" font-family="sans-serif" font-size="14.00" fill="#000000"> &#160;Module</text>
<polygon fill="#80b1d3" stroke="transparent" points="451.5,-10 451.5,-30 471.5,-30 471.5,-10 451.5,-10"/>
<text text-anchor="start" x="475.2812" y="-15.4" font-family="sans-serif" font-size="14.00" fill="#000000"> &#160;Bootstrap</text>
<polygon fill="#fdb462" stroke="transparent" points="548.5,-10 548.5,-30 568.5,-30 568.5,-10 548.5,-10"/>
<text text-anchor="start" x="572.1732" y="-15.4" font-family="sans-serif" font-size="14.00" fill="#000000"> &#160;Providers</text>
<polygon fill="#fb8072" stroke="transparent" points="644.5,-10 644.5,-30 664.5,-30 664.5,-10 644.5,-10"/>
<text text-anchor="start" x="668.2258" y="-15.4" font-family="sans-serif" font-size="14.00" fill="#000000"> &#160;Exports</text>
<g id="clust1" class="cluster">
<title>cluster_AppModule</title>
<polygon fill="none" stroke="#000000" stroke-dasharray="1,5" points="8,-70 8,-268 965,-268 965,-70 8,-70"/>
</g>
<g id="clust2" class="cluster">
<title>cluster_AppModule_declarations</title>
<polygon fill="none" stroke="#000000" points="835,-78 835,-130 957,-130 957,-78 835,-78"/>
</g>
<g id="clust4" class="cluster">
<title>cluster_AppModule_imports</title>
<polygon fill="none" stroke="#000000" points="154,-78 154,-130 827,-130 827,-78 154,-78"/>
</g>
<g id="clust6" class="cluster">
<title>cluster_AppModule_bootstrap</title>
<polygon fill="none" stroke="#000000" points="430,-208 430,-260 554,-260 554,-208 430,-208"/>
</g>
<g id="clust7" class="cluster">
<title>cluster_AppModule_providers</title>
<polygon fill="none" stroke="#000000" points="16,-78 16,-130 146,-130 146,-78 16,-78"/>
</g>
<!-- AppComponent -->
<g id="node1" class="node">
<title>AppComponent</title>
<polygon fill="#ffffb3" stroke="#000000" points="948.9399,-122 843.0601,-122 843.0601,-86 948.9399,-86 948.9399,-122"/>
<text text-anchor="middle" x="896" y="-99.8" font-family="Times,serif" font-size="14.00" fill="#000000">AppComponent</text>
</g>
<!-- AppModule -->
<g id="node2" class="node">
<title>AppModule</title>
<polygon fill="#8dd3c7" stroke="#000000" points="533.6571,-187 530.6571,-191 509.6571,-191 506.6571,-187 450.3429,-187 450.3429,-151 533.6571,-151 533.6571,-187"/>
<text text-anchor="middle" x="492" y="-164.8" font-family="Times,serif" font-size="14.00" fill="#000000">AppModule</text>
</g>
<!-- AppComponent&#45;&gt;AppModule -->
<g id="edge1" class="edge">
<title>AppComponent&#45;&gt;AppModule</title>
<path fill="none" stroke="#000000" d="M896,-122.2921C896,-144.2057 896,-178 896,-178 896,-178 543.7134,-178 543.7134,-178"/>
<polygon fill="#000000" stroke="#000000" points="543.7135,-174.5001 533.7134,-178 543.7134,-181.5001 543.7135,-174.5001"/>
</g>
<!-- AppComponent  -->
<g id="node9" class="node">
<title>AppComponent </title>
<polygon fill="#80b1d3" stroke="#000000" points="546.439,-252 437.561,-252 437.561,-216 546.439,-216 546.439,-252"/>
<text text-anchor="middle" x="492" y="-229.8" font-family="Times,serif" font-size="14.00" fill="#000000">AppComponent </text>
</g>
<!-- AppModule&#45;&gt;AppComponent  -->
<g id="edge8" class="edge">
<title>AppModule&#45;&gt;AppComponent </title>
<path fill="none" stroke="#000000" stroke-dasharray="1,5" d="M492,-187.1061C492,-187.1061 492,-205.991 492,-205.991"/>
<polygon fill="#000000" stroke="#000000" points="488.5001,-205.9909 492,-215.991 495.5001,-205.991 488.5001,-205.9909"/>
</g>
<!-- AuthModule -->
<g id="node3" class="node">
<title>AuthModule</title>
<polygon fill="#8dd3c7" stroke="#000000" points="818.5482,-122 815.5482,-126 794.5482,-126 791.5482,-122 731.4518,-122 731.4518,-86 818.5482,-86 818.5482,-122"/>
<text text-anchor="middle" x="775" y="-99.8" font-family="Times,serif" font-size="14.00" fill="#000000">AuthModule</text>
</g>
<!-- AuthModule&#45;&gt;AppModule -->
<g id="edge2" class="edge">
<title>AuthModule&#45;&gt;AppModule</title>
<path fill="none" stroke="#000000" d="M775,-122.1061C775,-141.3391 775,-169 775,-169 775,-169 543.7576,-169 543.7576,-169"/>
<polygon fill="#000000" stroke="#000000" points="543.7577,-165.5001 533.7576,-169 543.7576,-172.5001 543.7577,-165.5001"/>
</g>
<!-- HomeModule -->
<g id="node4" class="node">
<title>HomeModule</title>
<polygon fill="#8dd3c7" stroke="#000000" points="712.7619,-122 709.7619,-126 688.7619,-126 685.7619,-122 619.2381,-122 619.2381,-86 712.7619,-86 712.7619,-122"/>
<text text-anchor="middle" x="666" y="-99.8" font-family="Times,serif" font-size="14.00" fill="#000000">HomeModule</text>
</g>
<!-- HomeModule&#45;&gt;AppModule -->
<g id="edge3" class="edge">
<title>HomeModule&#45;&gt;AppModule</title>
<path fill="none" stroke="#000000" d="M666,-122.027C666,-138.3976 666,-160 666,-160 666,-160 543.6773,-160 543.6773,-160"/>
<polygon fill="#000000" stroke="#000000" points="543.6774,-156.5001 533.6773,-160 543.6773,-163.5001 543.6774,-156.5001"/>
</g>
<!-- ProfileModule -->
<g id="node5" class="node">
<title>ProfileModule</title>
<polygon fill="#8dd3c7" stroke="#000000" points="600.65,-122 597.65,-126 576.65,-126 573.65,-122 503.35,-122 503.35,-86 600.65,-86 600.65,-122"/>
<text text-anchor="middle" x="552" y="-99.8" font-family="Times,serif" font-size="14.00" fill="#000000">ProfileModule</text>
</g>
<!-- ProfileModule&#45;&gt;AppModule -->
<g id="edge4" class="edge">
<title>ProfileModule&#45;&gt;AppModule</title>
<path fill="none" stroke="#000000" d="M518.5018,-122.1061C518.5018,-122.1061 518.5018,-140.991 518.5018,-140.991"/>
<polygon fill="#000000" stroke="#000000" points="515.0018,-140.9909 518.5018,-150.991 522.0018,-140.991 515.0018,-140.9909"/>
</g>
<!-- ProjectsModule -->
<g id="node6" class="node">
<title>ProjectsModule</title>
<polygon fill="#8dd3c7" stroke="#000000" points="485.1486,-122 482.1486,-126 461.1486,-126 458.1486,-122 380.8514,-122 380.8514,-86 485.1486,-86 485.1486,-122"/>
<text text-anchor="middle" x="433" y="-99.8" font-family="Times,serif" font-size="14.00" fill="#000000">ProjectsModule</text>
</g>
<!-- ProjectsModule&#45;&gt;AppModule -->
<g id="edge5" class="edge">
<title>ProjectsModule&#45;&gt;AppModule</title>
<path fill="none" stroke="#000000" d="M467.7479,-122.1061C467.7479,-122.1061 467.7479,-140.991 467.7479,-140.991"/>
<polygon fill="#000000" stroke="#000000" points="464.248,-140.9909 467.7479,-150.991 471.248,-140.991 464.248,-140.9909"/>
</g>
<!-- ToolsModule -->
<g id="node7" class="node">
<title>ToolsModule</title>
<polygon fill="#8dd3c7" stroke="#000000" points="362.9387,-122 359.9387,-126 338.9387,-126 335.9387,-122 271.0613,-122 271.0613,-86 362.9387,-86 362.9387,-122"/>
<text text-anchor="middle" x="317" y="-99.8" font-family="Times,serif" font-size="14.00" fill="#000000">ToolsModule</text>
</g>
<!-- ToolsModule&#45;&gt;AppModule -->
<g id="edge6" class="edge">
<title>ToolsModule&#45;&gt;AppModule</title>
<path fill="none" stroke="#000000" d="M317,-122.027C317,-138.3976 317,-160 317,-160 317,-160 440.0831,-160 440.0831,-160"/>
<polygon fill="#000000" stroke="#000000" points="440.0832,-163.5001 450.0831,-160 440.0831,-156.5001 440.0832,-163.5001"/>
</g>
<!-- UsersModule -->
<g id="node8" class="node">
<title>UsersModule</title>
<polygon fill="#8dd3c7" stroke="#000000" points="253.9218,-122 250.9218,-126 229.9218,-126 226.9218,-122 162.0782,-122 162.0782,-86 253.9218,-86 253.9218,-122"/>
<text text-anchor="middle" x="208" y="-99.8" font-family="Times,serif" font-size="14.00" fill="#000000">UsersModule</text>
</g>
<!-- UsersModule&#45;&gt;AppModule -->
<g id="edge7" class="edge">
<title>UsersModule&#45;&gt;AppModule</title>
<path fill="none" stroke="#000000" d="M208,-122.1061C208,-141.3391 208,-169 208,-169 208,-169 440.0948,-169 440.0948,-169"/>
<polygon fill="#000000" stroke="#000000" points="440.0949,-172.5001 450.0948,-169 440.0948,-165.5001 440.0949,-172.5001"/>
</g>
<!-- AppService -->
<g id="node10" class="node">
<title>AppService</title>
<ellipse fill="#fdb462" stroke="#000000" cx="81" cy="-104" rx="56.7406" ry="18"/>
<text text-anchor="middle" x="81" y="-99.8" font-family="Times,serif" font-size="14.00" fill="#000000">AppService</text>
</g>
<!-- AppService&#45;&gt;AppModule -->
<g id="edge9" class="edge">
<title>AppService&#45;&gt;AppModule</title>
<path fill="none" stroke="#000000" d="M81,-122.2921C81,-144.2057 81,-178 81,-178 81,-178 440.3293,-178 440.3293,-178"/>
<polygon fill="#000000" stroke="#000000" points="440.3294,-181.5001 450.3293,-178 440.3293,-174.5001 440.3294,-181.5001"/>
</g>
</g>
</svg>
