<?xml version="1.0" encoding="UTF-8" standalone="no"?>
<!DOCTYPE svg PUBLIC "-//W3C//DTD SVG 1.1//EN"
 "http://www.w3.org/Graphics/SVG/1.1/DTD/svg11.dtd">
<!-- Generated by graphviz version 2.40.1 (20161225.0304)
 -->
<!-- Title: dependencies Pages: 1 -->
<svg width="504pt" height="211pt"
 viewBox="0.00 0.00 504.00 211.00" xmlns="http://www.w3.org/2000/svg" xmlns:xlink="http://www.w3.org/1999/xlink">
<g id="graph0" class="graph" transform="scale(1 1) rotate(0) translate(4 207)">
<title>dependencies</title>
<polygon fill="#ffffff" stroke="transparent" points="-4,4 -4,-207 500,-207 500,4 -4,4"/>
<text text-anchor="start" x="227.0091" y="-42.4" font-family="sans-serif" font-weight="bold" font-size="14.00" fill="#000000">Legend</text>
<polygon fill="#ffffb3" stroke="transparent" points="14,-10 14,-30 34,-30 34,-10 14,-10"/>
<text text-anchor="start" x="37.629" y="-15.4" font-family="sans-serif" font-size="14.00" fill="#000000"> &#160;Declarations</text>
<polygon fill="#8dd3c7" stroke="transparent" points="127,-10 127,-30 147,-30 147,-10 127,-10"/>
<text text-anchor="start" x="150.7251" y="-15.4" font-family="sans-serif" font-size="14.00" fill="#000000"> &#160;Module</text>
<polygon fill="#80b1d3" stroke="transparent" points="213,-10 213,-30 233,-30 233,-10 213,-10"/>
<text text-anchor="start" x="236.7812" y="-15.4" font-family="sans-serif" font-size="14.00" fill="#000000"> &#160;Bootstrap</text>
<polygon fill="#fdb462" stroke="transparent" points="310,-10 310,-30 330,-30 330,-10 310,-10"/>
<text text-anchor="start" x="333.6732" y="-15.4" font-family="sans-serif" font-size="14.00" fill="#000000"> &#160;Providers</text>
<polygon fill="#fb8072" stroke="transparent" points="406,-10 406,-30 426,-30 426,-10 406,-10"/>
<text text-anchor="start" x="429.7258" y="-15.4" font-family="sans-serif" font-size="14.00" fill="#000000"> &#160;Exports</text>
<g id="clust1" class="cluster">
<title>cluster_HomeModule</title>
<polygon fill="none" stroke="#000000" stroke-dasharray="1,5" points="110,-70 110,-195 386,-195 386,-70 110,-70"/>
</g>
<g id="clust2" class="cluster">
<title>cluster_HomeModule_declarations</title>
<polygon fill="none" stroke="#000000" points="246,-78 246,-130 378,-130 378,-78 246,-78"/>
</g>
<g id="clust4" class="cluster">
<title>cluster_HomeModule_imports</title>
<polygon fill="none" stroke="#000000" points="118,-78 118,-130 238,-130 238,-78 118,-78"/>
</g>
<!-- HomeComponent -->
<g id="node1" class="node">
<title>HomeComponent</title>
<polygon fill="#ffffb3" stroke="#000000" points="369.5451,-122 254.4549,-122 254.4549,-86 369.5451,-86 369.5451,-122"/>
<text text-anchor="middle" x="312" y="-99.8" font-family="Times,serif" font-size="14.00" fill="#000000">HomeComponent</text>
</g>
<!-- HomeModule -->
<g id="node2" class="node">
<title>HomeModule</title>
<polygon fill="#8dd3c7" stroke="#000000" points="291.7619,-187 288.7619,-191 267.7619,-191 264.7619,-187 198.2381,-187 198.2381,-151 291.7619,-151 291.7619,-187"/>
<text text-anchor="middle" x="245" y="-164.8" font-family="Times,serif" font-size="14.00" fill="#000000">HomeModule</text>
</g>
<!-- HomeComponent&#45;&gt;HomeModule -->
<g id="edge1" class="edge">
<title>HomeComponent&#45;&gt;HomeModule</title>
<path fill="none" stroke="#000000" d="M273.0544,-122.1061C273.0544,-122.1061 273.0544,-140.991 273.0544,-140.991"/>
<polygon fill="#000000" stroke="#000000" points="269.5544,-140.9909 273.0544,-150.991 276.5544,-140.991 269.5544,-140.9909"/>
</g>
<!-- ProjectsModule -->
<g id="node3" class="node">
<title>ProjectsModule</title>
<polygon fill="#8dd3c7" stroke="#000000" points="230.1486,-122 227.1486,-126 206.1486,-126 203.1486,-122 125.8514,-122 125.8514,-86 230.1486,-86 230.1486,-122"/>
<text text-anchor="middle" x="178" y="-99.8" font-family="Times,serif" font-size="14.00" fill="#000000">ProjectsModule</text>
</g>
<!-- ProjectsModule&#45;&gt;HomeModule -->
<g id="edge2" class="edge">
<title>ProjectsModule&#45;&gt;HomeModule</title>
<path fill="none" stroke="#000000" d="M214.2216,-122.1061C214.2216,-122.1061 214.2216,-140.991 214.2216,-140.991"/>
<polygon fill="#000000" stroke="#000000" points="210.7217,-140.9909 214.2216,-150.991 217.7217,-140.991 210.7217,-140.9909"/>
</g>
</g>
</svg>
