<?xml version="1.0" encoding="UTF-8" standalone="no"?>
<!DOCTYPE svg PUBLIC "-//W3C//DTD SVG 1.1//EN"
 "http://www.w3.org/Graphics/SVG/1.1/DTD/svg11.dtd">
<!-- Generated by graphviz version 2.40.1 (20161225.0304)
 -->
<!-- Title: dependencies Pages: 1 -->
<svg width="504pt" height="211pt"
 viewBox="0.00 0.00 504.00 211.00" xmlns="http://www.w3.org/2000/svg" xmlns:xlink="http://www.w3.org/1999/xlink">
<g id="graph0" class="graph" transform="scale(1 1) rotate(0) translate(4 207)">
<title>dependencies</title>
<polygon fill="#ffffff" stroke="transparent" points="-4,4 -4,-207 500,-207 500,4 -4,4"/>
<text text-anchor="start" x="227.0091" y="-42.4" font-family="sans-serif" font-weight="bold" font-size="14.00" fill="#000000">Legend</text>
<polygon fill="#ffffb3" stroke="transparent" points="14,-10 14,-30 34,-30 34,-10 14,-10"/>
<text text-anchor="start" x="37.629" y="-15.4" font-family="sans-serif" font-size="14.00" fill="#000000"> &#160;Declarations</text>
<polygon fill="#8dd3c7" stroke="transparent" points="127,-10 127,-30 147,-30 147,-10 127,-10"/>
<text text-anchor="start" x="150.7251" y="-15.4" font-family="sans-serif" font-size="14.00" fill="#000000"> &#160;Module</text>
<polygon fill="#80b1d3" stroke="transparent" points="213,-10 213,-30 233,-30 233,-10 213,-10"/>
<text text-anchor="start" x="236.7812" y="-15.4" font-family="sans-serif" font-size="14.00" fill="#000000"> &#160;Bootstrap</text>
<polygon fill="#fdb462" stroke="transparent" points="310,-10 310,-30 330,-30 330,-10 310,-10"/>
<text text-anchor="start" x="333.6732" y="-15.4" font-family="sans-serif" font-size="14.00" fill="#000000"> &#160;Providers</text>
<polygon fill="#fb8072" stroke="transparent" points="406,-10 406,-30 426,-30 426,-10 406,-10"/>
<text text-anchor="start" x="429.7258" y="-15.4" font-family="sans-serif" font-size="14.00" fill="#000000"> &#160;Exports</text>
<g id="clust1" class="cluster">
<title>cluster_ProfileModule</title>
<polygon fill="none" stroke="#000000" stroke-dasharray="1,5" points="27,-70 27,-195 469,-195 469,-70 27,-70"/>
</g>
<g id="clust2" class="cluster">
<title>cluster_ProfileModule_declarations</title>
<polygon fill="none" stroke="#000000" points="293,-78 293,-130 461,-130 461,-78 293,-78"/>
</g>
<g id="clust4" class="cluster">
<title>cluster_ProfileModule_imports</title>
<polygon fill="none" stroke="#000000" points="35,-78 35,-130 285,-130 285,-78 35,-78"/>
</g>
<!-- ProfileIndexComponent -->
<g id="node1" class="node">
<title>ProfileIndexComponent</title>
<polygon fill="#ffffb3" stroke="#000000" points="452.8075,-122 301.1925,-122 301.1925,-86 452.8075,-86 452.8075,-122"/>
<text text-anchor="middle" x="377" y="-99.8" font-family="Times,serif" font-size="14.00" fill="#000000">ProfileIndexComponent</text>
</g>
<!-- ProfileModule -->
<g id="node2" class="node">
<title>ProfileModule</title>
<polygon fill="#8dd3c7" stroke="#000000" points="269.65,-187 266.65,-191 245.65,-191 242.65,-187 172.35,-187 172.35,-151 269.65,-151 269.65,-187"/>
<text text-anchor="middle" x="221" y="-164.8" font-family="Times,serif" font-size="14.00" fill="#000000">ProfileModule</text>
</g>
<!-- ProfileIndexComponent&#45;&gt;ProfileModule -->
<g id="edge1" class="edge">
<title>ProfileIndexComponent&#45;&gt;ProfileModule</title>
<path fill="none" stroke="#000000" d="M377,-122.1061C377,-141.3391 377,-169 377,-169 377,-169 279.9314,-169 279.9314,-169"/>
<polygon fill="#000000" stroke="#000000" points="279.9314,-165.5001 269.9314,-169 279.9313,-172.5001 279.9314,-165.5001"/>
</g>
<!-- CommonModule -->
<g id="node3" class="node">
<title>CommonModule</title>
<polygon fill="#8dd3c7" stroke="#000000" points="276.6681,-122 273.6681,-126 252.6681,-126 249.6681,-122 165.3319,-122 165.3319,-86 276.6681,-86 276.6681,-122"/>
<text text-anchor="middle" x="221" y="-99.8" font-family="Times,serif" font-size="14.00" fill="#000000">CommonModule</text>
</g>
<!-- CommonModule&#45;&gt;ProfileModule -->
<g id="edge2" class="edge">
<title>CommonModule&#45;&gt;ProfileModule</title>
<path fill="none" stroke="#000000" d="M221,-122.1061C221,-122.1061 221,-140.991 221,-140.991"/>
<polygon fill="#000000" stroke="#000000" points="217.5001,-140.9909 221,-150.991 224.5001,-140.991 217.5001,-140.9909"/>
</g>
<!-- ProjectsModule -->
<g id="node4" class="node">
<title>ProjectsModule</title>
<polygon fill="#8dd3c7" stroke="#000000" points="147.1486,-122 144.1486,-126 123.1486,-126 120.1486,-122 42.8514,-122 42.8514,-86 147.1486,-86 147.1486,-122"/>
<text text-anchor="middle" x="95" y="-99.8" font-family="Times,serif" font-size="14.00" fill="#000000">ProjectsModule</text>
</g>
<!-- ProjectsModule&#45;&gt;ProfileModule -->
<g id="edge3" class="edge">
<title>ProjectsModule&#45;&gt;ProfileModule</title>
<path fill="none" stroke="#000000" d="M95,-122.1061C95,-141.3391 95,-169 95,-169 95,-169 162.2851,-169 162.2851,-169"/>
<polygon fill="#000000" stroke="#000000" points="162.2851,-172.5001 172.2851,-169 162.2851,-165.5001 162.2851,-172.5001"/>
</g>
</g>
</svg>
