<?xml version="1.0" encoding="UTF-8" standalone="no"?>
<!DOCTYPE svg PUBLIC "-//W3C//DTD SVG 1.1//EN"
 "http://www.w3.org/Graphics/SVG/1.1/DTD/svg11.dtd">
<!-- Generated by graphviz version 2.40.1 (20161225.0304)
 -->
<!-- Title: dependencies Pages: 1 -->
<svg width="504pt" height="211pt"
 viewBox="0.00 0.00 504.00 211.00" xmlns="http://www.w3.org/2000/svg" xmlns:xlink="http://www.w3.org/1999/xlink">
<g id="graph0" class="graph" transform="scale(1 1) rotate(0) translate(4 207)">
<title>dependencies</title>
<polygon fill="#ffffff" stroke="transparent" points="-4,4 -4,-207 500,-207 500,4 -4,4"/>
<text text-anchor="start" x="227.0091" y="-42.4" font-family="sans-serif" font-weight="bold" font-size="14.00" fill="#000000">Legend</text>
<polygon fill="#ffffb3" stroke="transparent" points="14,-10 14,-30 34,-30 34,-10 14,-10"/>
<text text-anchor="start" x="37.629" y="-15.4" font-family="sans-serif" font-size="14.00" fill="#000000"> &#160;Declarations</text>
<polygon fill="#8dd3c7" stroke="transparent" points="127,-10 127,-30 147,-30 147,-10 127,-10"/>
<text text-anchor="start" x="150.7251" y="-15.4" font-family="sans-serif" font-size="14.00" fill="#000000"> &#160;Module</text>
<polygon fill="#80b1d3" stroke="transparent" points="213,-10 213,-30 233,-30 233,-10 213,-10"/>
<text text-anchor="start" x="236.7812" y="-15.4" font-family="sans-serif" font-size="14.00" fill="#000000"> &#160;Bootstrap</text>
<polygon fill="#fdb462" stroke="transparent" points="310,-10 310,-30 330,-30 330,-10 310,-10"/>
<text text-anchor="start" x="333.6732" y="-15.4" font-family="sans-serif" font-size="14.00" fill="#000000"> &#160;Providers</text>
<polygon fill="#fb8072" stroke="transparent" points="406,-10 406,-30 426,-30 426,-10 406,-10"/>
<text text-anchor="start" x="429.7258" y="-15.4" font-family="sans-serif" font-size="14.00" fill="#000000"> &#160;Exports</text>
<g id="clust1" class="cluster">
<title>cluster_ProfileModule</title>
<polygon fill="none" stroke="#000000" stroke-dasharray="1,5" points="92,-70 92,-195 404,-195 404,-70 92,-70"/>
</g>
<g id="clust2" class="cluster">
<title>cluster_ProfileModule_declarations</title>
<polygon fill="none" stroke="#000000" points="228,-78 228,-130 396,-130 396,-78 228,-78"/>
</g>
<g id="clust4" class="cluster">
<title>cluster_ProfileModule_imports</title>
<polygon fill="none" stroke="#000000" points="100,-78 100,-130 220,-130 220,-78 100,-78"/>
</g>
<!-- ProfileIndexComponent -->
<g id="node1" class="node">
<title>ProfileIndexComponent</title>
<polygon fill="#ffffb3" stroke="#000000" points="387.8075,-122 236.1925,-122 236.1925,-86 387.8075,-86 387.8075,-122"/>
<text text-anchor="middle" x="312" y="-99.8" font-family="Times,serif" font-size="14.00" fill="#000000">ProfileIndexComponent</text>
</g>
<!-- ProfileModule -->
<g id="node2" class="node">
<title>ProfileModule</title>
<polygon fill="#8dd3c7" stroke="#000000" points="284.65,-187 281.65,-191 260.65,-191 257.65,-187 187.35,-187 187.35,-151 284.65,-151 284.65,-187"/>
<text text-anchor="middle" x="236" y="-164.8" font-family="Times,serif" font-size="14.00" fill="#000000">ProfileModule</text>
</g>
<!-- ProfileIndexComponent&#45;&gt;ProfileModule -->
<g id="edge1" class="edge">
<title>ProfileIndexComponent&#45;&gt;ProfileModule</title>
<path fill="none" stroke="#000000" d="M260.5856,-122.1061C260.5856,-122.1061 260.5856,-140.991 260.5856,-140.991"/>
<polygon fill="#000000" stroke="#000000" points="257.0856,-140.9909 260.5856,-150.991 264.0856,-140.991 257.0856,-140.9909"/>
</g>
<!-- ProjectsModule -->
<g id="node3" class="node">
<title>ProjectsModule</title>
<polygon fill="#8dd3c7" stroke="#000000" points="212.1486,-122 209.1486,-126 188.1486,-126 185.1486,-122 107.8514,-122 107.8514,-86 212.1486,-86 212.1486,-122"/>
<text text-anchor="middle" x="160" y="-99.8" font-family="Times,serif" font-size="14.00" fill="#000000">ProjectsModule</text>
</g>
<!-- ProjectsModule&#45;&gt;ProfileModule -->
<g id="edge2" class="edge">
<title>ProjectsModule&#45;&gt;ProfileModule</title>
<path fill="none" stroke="#000000" d="M199.7497,-122.1061C199.7497,-122.1061 199.7497,-140.991 199.7497,-140.991"/>
<polygon fill="#000000" stroke="#000000" points="196.2497,-140.9909 199.7497,-150.991 203.2497,-140.991 196.2497,-140.9909"/>
</g>
</g>
</svg>
