<?xml version="1.0" encoding="UTF-8" standalone="no"?>
<!DOCTYPE svg PUBLIC "-//W3C//DTD SVG 1.1//EN"
 "http://www.w3.org/Graphics/SVG/1.1/DTD/svg11.dtd">
<!-- Generated by graphviz version 2.40.1 (20161225.0304)
 -->
<!-- Title: dependencies Pages: 1 -->
<svg width="1541pt" height="284pt"
 viewBox="0.00 0.00 1541.00 284.00" xmlns="http://www.w3.org/2000/svg" xmlns:xlink="http://www.w3.org/1999/xlink">
<g id="graph0" class="graph" transform="scale(1 1) rotate(0) translate(4 280)">
<title>dependencies</title>
<polygon fill="#ffffff" stroke="transparent" points="-4,4 -4,-280 1537,-280 1537,4 -4,4"/>
<text text-anchor="start" x="745.5091" y="-42.4" font-family="sans-serif" font-weight="bold" font-size="14.00" fill="#000000">Legend</text>
<polygon fill="#ffffb3" stroke="transparent" points="532.5,-10 532.5,-30 552.5,-30 552.5,-10 532.5,-10"/>
<text text-anchor="start" x="556.129" y="-15.4" font-family="sans-serif" font-size="14.00" fill="#000000"> &#160;Declarations</text>
<polygon fill="#8dd3c7" stroke="transparent" points="645.5,-10 645.5,-30 665.5,-30 665.5,-10 645.5,-10"/>
<text text-anchor="start" x="669.2251" y="-15.4" font-family="sans-serif" font-size="14.00" fill="#000000"> &#160;Module</text>
<polygon fill="#80b1d3" stroke="transparent" points="731.5,-10 731.5,-30 751.5,-30 751.5,-10 731.5,-10"/>
<text text-anchor="start" x="755.2812" y="-15.4" font-family="sans-serif" font-size="14.00" fill="#000000"> &#160;Bootstrap</text>
<polygon fill="#fdb462" stroke="transparent" points="828.5,-10 828.5,-30 848.5,-30 848.5,-10 828.5,-10"/>
<text text-anchor="start" x="852.1732" y="-15.4" font-family="sans-serif" font-size="14.00" fill="#000000"> &#160;Providers</text>
<polygon fill="#fb8072" stroke="transparent" points="924.5,-10 924.5,-30 944.5,-30 944.5,-10 924.5,-10"/>
<text text-anchor="start" x="948.2258" y="-15.4" font-family="sans-serif" font-size="14.00" fill="#000000"> &#160;Exports</text>
<g id="clust1" class="cluster">
<title>cluster_SidenavModule</title>
<polygon fill="none" stroke="#000000" stroke-dasharray="1,5" points="8,-70 8,-268 1525,-268 1525,-70 8,-70"/>
</g>
<g id="clust2" class="cluster">
<title>cluster_SidenavModule_declarations</title>
<polygon fill="none" stroke="#000000" points="268,-78 268,-130 1517,-130 1517,-78 268,-78"/>
</g>
<g id="clust10" class="cluster">
<title>cluster_SidenavModule_imports</title>
<polygon fill="none" stroke="#000000" points="16,-78 16,-130 260,-130 260,-78 16,-78"/>
</g>
<g id="clust11" class="cluster">
<title>cluster_SidenavModule_exports</title>
<polygon fill="none" stroke="#000000" points="78,-208 78,-260 1352,-260 1352,-208 78,-208"/>
</g>
<!-- SidenavComponent -->
<g id="node1" class="node">
<title>SidenavComponent</title>
<polygon fill="#ffffb3" stroke="#000000" points="1509.4356,-122 1382.5644,-122 1382.5644,-86 1509.4356,-86 1509.4356,-122"/>
<text text-anchor="middle" x="1446" y="-99.8" font-family="Times,serif" font-size="14.00" fill="#000000">SidenavComponent</text>
</g>
<!-- SidenavModule -->
<g id="node8" class="node">
<title>SidenavModule</title>
<polygon fill="#8dd3c7" stroke="#000000" points="780.1528,-187 777.1528,-191 756.1528,-191 753.1528,-187 675.8472,-187 675.8472,-151 780.1528,-151 780.1528,-187"/>
<text text-anchor="middle" x="728" y="-164.8" font-family="Times,serif" font-size="14.00" fill="#000000">SidenavModule</text>
</g>
<!-- SidenavComponent&#45;&gt;SidenavModule -->
<g id="edge1" class="edge">
<title>SidenavComponent&#45;&gt;SidenavModule</title>
<path fill="none" stroke="#000000" d="M1446,-122.1061C1446,-141.3391 1446,-169 1446,-169 1446,-169 790.2151,-169 790.2151,-169"/>
<polygon fill="#000000" stroke="#000000" points="790.2152,-165.5001 780.2151,-169 790.2151,-172.5001 790.2152,-165.5001"/>
</g>
<!-- SidenavLinkComponent -->
<g id="node2" class="node">
<title>SidenavLinkComponent</title>
<polygon fill="#ffffb3" stroke="#000000" points="1364.378,-122 1211.622,-122 1211.622,-86 1364.378,-86 1364.378,-122"/>
<text text-anchor="middle" x="1288" y="-99.8" font-family="Times,serif" font-size="14.00" fill="#000000">SidenavLinkComponent</text>
</g>
<!-- SidenavLinkComponent&#45;&gt;SidenavModule -->
<g id="edge2" class="edge">
<title>SidenavLinkComponent&#45;&gt;SidenavModule</title>
<path fill="none" stroke="#000000" d="M1257.3442,-122.302C1257.3442,-140.2699 1257.3442,-165 1257.3442,-165 1257.3442,-165 790.2042,-165 790.2042,-165"/>
<polygon fill="#000000" stroke="#000000" points="790.2043,-161.5001 780.2042,-165 790.2042,-168.5001 790.2043,-161.5001"/>
</g>
<!-- SidenavRouterLinkComponent -->
<g id="node3" class="node">
<title>SidenavRouterLinkComponent</title>
<polygon fill="#ffffb3" stroke="#000000" points="1193.4804,-122 1002.5196,-122 1002.5196,-86 1193.4804,-86 1193.4804,-122"/>
<text text-anchor="middle" x="1098" y="-99.8" font-family="Times,serif" font-size="14.00" fill="#000000">SidenavRouterLinkComponent</text>
</g>
<!-- SidenavRouterLinkComponent&#45;&gt;SidenavModule -->
<g id="edge3" class="edge">
<title>SidenavRouterLinkComponent&#45;&gt;SidenavModule</title>
<path fill="none" stroke="#000000" d="M1012.375,-122.027C1012.375,-138.3976 1012.375,-160 1012.375,-160 1012.375,-160 790.1588,-160 790.1588,-160"/>
<polygon fill="#000000" stroke="#000000" points="790.1588,-156.5001 780.1588,-160 790.1587,-163.5001 790.1588,-156.5001"/>
</g>
<!-- SidenavMenuComponent -->
<g id="node4" class="node">
<title>SidenavMenuComponent</title>
<polygon fill="#ffffb3" stroke="#000000" points="984.594,-122 825.406,-122 825.406,-86 984.594,-86 984.594,-122"/>
<text text-anchor="middle" x="905" y="-99.8" font-family="Times,serif" font-size="14.00" fill="#000000">SidenavMenuComponent</text>
</g>
<!-- SidenavMenuComponent&#45;&gt;SidenavModule -->
<g id="edge4" class="edge">
<title>SidenavMenuComponent&#45;&gt;SidenavModule</title>
<path fill="none" stroke="#000000" d="M932.2846,-122.1871C932.2846,-137.1824 932.2846,-156 932.2846,-156 932.2846,-156 790.3431,-156 790.3431,-156"/>
<polygon fill="#000000" stroke="#000000" points="790.3431,-152.5001 780.3431,-156 790.343,-159.5001 790.3431,-152.5001"/>
</g>
<!-- SidenavBlockComponent -->
<g id="node5" class="node">
<title>SidenavBlockComponent</title>
<polygon fill="#ffffb3" stroke="#000000" points="807.8766,-122 648.1234,-122 648.1234,-86 807.8766,-86 807.8766,-122"/>
<text text-anchor="middle" x="728" y="-99.8" font-family="Times,serif" font-size="14.00" fill="#000000">SidenavBlockComponent</text>
</g>
<!-- SidenavBlockComponent&#45;&gt;SidenavModule -->
<g id="edge5" class="edge">
<title>SidenavBlockComponent&#45;&gt;SidenavModule</title>
<path fill="none" stroke="#000000" d="M728,-122.1061C728,-122.1061 728,-140.991 728,-140.991"/>
<polygon fill="#000000" stroke="#000000" points="724.5001,-140.9909 728,-150.991 731.5001,-140.991 724.5001,-140.9909"/>
</g>
<!-- SidenavDividerComponent -->
<g id="node6" class="node">
<title>SidenavDividerComponent</title>
<polygon fill="#ffffb3" stroke="#000000" points="629.6979,-122 460.3021,-122 460.3021,-86 629.6979,-86 629.6979,-122"/>
<text text-anchor="middle" x="545" y="-99.8" font-family="Times,serif" font-size="14.00" fill="#000000">SidenavDividerComponent</text>
</g>
<!-- SidenavDividerComponent&#45;&gt;SidenavModule -->
<g id="edge6" class="edge">
<title>SidenavDividerComponent&#45;&gt;SidenavModule</title>
<path fill="none" stroke="#000000" d="M519.7706,-122.1871C519.7706,-137.1824 519.7706,-156 519.7706,-156 519.7706,-156 665.7237,-156 665.7237,-156"/>
<polygon fill="#000000" stroke="#000000" points="665.7237,-159.5001 675.7237,-156 665.7237,-152.5001 665.7237,-159.5001"/>
</g>
<!-- SidenavHeaderComponent -->
<g id="node7" class="node">
<title>SidenavHeaderComponent</title>
<polygon fill="#ffffb3" stroke="#000000" points="442.3459,-122 275.6541,-122 275.6541,-86 442.3459,-86 442.3459,-122"/>
<text text-anchor="middle" x="359" y="-99.8" font-family="Times,serif" font-size="14.00" fill="#000000">SidenavHeaderComponent</text>
</g>
<!-- SidenavHeaderComponent&#45;&gt;SidenavModule -->
<g id="edge7" class="edge">
<title>SidenavHeaderComponent&#45;&gt;SidenavModule</title>
<path fill="none" stroke="#000000" d="M331.1924,-122.027C331.1924,-138.3976 331.1924,-160 331.1924,-160 331.1924,-160 665.7163,-160 665.7163,-160"/>
<polygon fill="#000000" stroke="#000000" points="665.7163,-163.5001 675.7163,-160 665.7163,-156.5001 665.7163,-163.5001"/>
</g>
<!-- SidenavComponent  -->
<g id="node11" class="node">
<title>SidenavComponent </title>
<polygon fill="#fb8072" stroke="#000000" points="1343.9348,-252 1214.0652,-252 1214.0652,-216 1343.9348,-216 1343.9348,-252"/>
<text text-anchor="middle" x="1279" y="-229.8" font-family="Times,serif" font-size="14.00" fill="#000000">SidenavComponent </text>
</g>
<!-- SidenavModule&#45;&gt;SidenavComponent  -->
<g id="edge10" class="edge">
<title>SidenavModule&#45;&gt;SidenavComponent </title>
<path fill="none" stroke="#000000" stroke-dasharray="5,2" d="M780.3375,-174C921.7042,-174 1300.6558,-174 1300.6558,-174 1300.6558,-174 1300.6558,-205.998 1300.6558,-205.998"/>
<polygon fill="#000000" stroke="#000000" points="1297.1559,-205.998 1300.6558,-215.998 1304.1559,-205.9981 1297.1559,-205.998"/>
</g>
<!-- SidenavLinkComponent  -->
<g id="node12" class="node">
<title>SidenavLinkComponent </title>
<polygon fill="#fb8072" stroke="#000000" points="1196.3785,-252 1039.6215,-252 1039.6215,-216 1196.3785,-216 1196.3785,-252"/>
<text text-anchor="middle" x="1118" y="-229.8" font-family="Times,serif" font-size="14.00" fill="#000000">SidenavLinkComponent </text>
</g>
<!-- SidenavModule&#45;&gt;SidenavLinkComponent  -->
<g id="edge11" class="edge">
<title>SidenavModule&#45;&gt;SidenavLinkComponent </title>
<path fill="none" stroke="#000000" stroke-dasharray="5,2" d="M780.4151,-178C886.5001,-178 1116.6506,-178 1116.6506,-178 1116.6506,-178 1116.6506,-205.973 1116.6506,-205.973"/>
<polygon fill="#000000" stroke="#000000" points="1113.1507,-205.973 1116.6506,-215.973 1120.1507,-205.973 1113.1507,-205.973"/>
</g>
<!-- SidenavRouterLinkComponent  -->
<g id="node13" class="node">
<title>SidenavRouterLinkComponent </title>
<polygon fill="#fb8072" stroke="#000000" points="1022.481,-252 827.519,-252 827.519,-216 1022.481,-216 1022.481,-252"/>
<text text-anchor="middle" x="925" y="-229.8" font-family="Times,serif" font-size="14.00" fill="#000000">SidenavRouterLinkComponent </text>
</g>
<!-- SidenavModule&#45;&gt;SidenavRouterLinkComponent  -->
<g id="edge12" class="edge">
<title>SidenavModule&#45;&gt;SidenavRouterLinkComponent </title>
<path fill="none" stroke="#000000" stroke-dasharray="5,2" d="M780.3174,-183C824.292,-183 880.0222,-183 880.0222,-183 880.0222,-183 880.0222,-205.8757 880.0222,-205.8757"/>
<polygon fill="#000000" stroke="#000000" points="876.5223,-205.8757 880.0222,-215.8757 883.5223,-205.8757 876.5223,-205.8757"/>
</g>
<!-- SidenavMenuComponent  -->
<g id="node14" class="node">
<title>SidenavMenuComponent </title>
<polygon fill="#fb8072" stroke="#000000" points="809.0945,-252 646.9055,-252 646.9055,-216 809.0945,-216 809.0945,-252"/>
<text text-anchor="middle" x="728" y="-229.8" font-family="Times,serif" font-size="14.00" fill="#000000">SidenavMenuComponent </text>
</g>
<!-- SidenavModule&#45;&gt;SidenavMenuComponent  -->
<g id="edge13" class="edge">
<title>SidenavModule&#45;&gt;SidenavMenuComponent </title>
<path fill="none" stroke="#000000" stroke-dasharray="5,2" d="M728,-187.1061C728,-187.1061 728,-205.991 728,-205.991"/>
<polygon fill="#000000" stroke="#000000" points="724.5001,-205.9909 728,-215.991 731.5001,-205.991 724.5001,-205.9909"/>
</g>
<!-- SidenavBlockComponent  -->
<g id="node15" class="node">
<title>SidenavBlockComponent </title>
<polygon fill="#fb8072" stroke="#000000" points="628.877,-252 465.123,-252 465.123,-216 628.877,-216 628.877,-252"/>
<text text-anchor="middle" x="547" y="-229.8" font-family="Times,serif" font-size="14.00" fill="#000000">SidenavBlockComponent </text>
</g>
<!-- SidenavModule&#45;&gt;SidenavBlockComponent  -->
<g id="edge14" class="edge">
<title>SidenavModule&#45;&gt;SidenavBlockComponent </title>
<path fill="none" stroke="#000000" stroke-dasharray="5,2" d="M675.511,-183C630.9648,-183 574.2294,-183 574.2294,-183 574.2294,-183 574.2294,-205.8757 574.2294,-205.8757"/>
<polygon fill="#000000" stroke="#000000" points="570.7295,-205.8757 574.2294,-215.8757 577.7295,-205.8757 570.7295,-205.8757"/>
</g>
<!-- SidenavDividerComponent  -->
<g id="node16" class="node">
<title>SidenavDividerComponent </title>
<polygon fill="#fb8072" stroke="#000000" points="447.1981,-252 274.8019,-252 274.8019,-216 447.1981,-216 447.1981,-252"/>
<text text-anchor="middle" x="361" y="-229.8" font-family="Times,serif" font-size="14.00" fill="#000000">SidenavDividerComponent </text>
</g>
<!-- SidenavModule&#45;&gt;SidenavDividerComponent  -->
<g id="edge15" class="edge">
<title>SidenavModule&#45;&gt;SidenavDividerComponent </title>
<path fill="none" stroke="#000000" stroke-dasharray="5,2" d="M675.8088,-178C580.2306,-178 386.8076,-178 386.8076,-178 386.8076,-178 386.8076,-205.973 386.8076,-205.973"/>
<polygon fill="#000000" stroke="#000000" points="383.3077,-205.973 386.8076,-215.973 390.3077,-205.973 383.3077,-205.973"/>
</g>
<!-- SidenavHeaderComponent  -->
<g id="node17" class="node">
<title>SidenavHeaderComponent </title>
<polygon fill="#fb8072" stroke="#000000" points="256.3462,-252 85.6538,-252 85.6538,-216 256.3462,-216 256.3462,-252"/>
<text text-anchor="middle" x="171" y="-229.8" font-family="Times,serif" font-size="14.00" fill="#000000">SidenavHeaderComponent </text>
</g>
<!-- SidenavModule&#45;&gt;SidenavHeaderComponent  -->
<g id="edge16" class="edge">
<title>SidenavModule&#45;&gt;SidenavHeaderComponent </title>
<path fill="none" stroke="#000000" stroke-dasharray="5,2" d="M675.7034,-174C538.2616,-174 177.3887,-174 177.3887,-174 177.3887,-174 177.3887,-205.998 177.3887,-205.998"/>
<polygon fill="#000000" stroke="#000000" points="173.8888,-205.998 177.3887,-215.998 180.8888,-205.9981 173.8888,-205.998"/>
</g>
<!-- CommonModule -->
<g id="node9" class="node">
<title>CommonModule</title>
<polygon fill="#8dd3c7" stroke="#000000" points="251.6681,-122 248.6681,-126 227.6681,-126 224.6681,-122 140.3319,-122 140.3319,-86 251.6681,-86 251.6681,-122"/>
<text text-anchor="middle" x="196" y="-99.8" font-family="Times,serif" font-size="14.00" fill="#000000">CommonModule</text>
</g>
<!-- CommonModule&#45;&gt;SidenavModule -->
<g id="edge8" class="edge">
<title>CommonModule&#45;&gt;SidenavModule</title>
<path fill="none" stroke="#000000" d="M214.6113,-122.302C214.6113,-140.2699 214.6113,-165 214.6113,-165 214.6113,-165 665.4711,-165 665.4711,-165"/>
<polygon fill="#000000" stroke="#000000" points="665.4711,-168.5001 675.4711,-165 665.471,-161.5001 665.4711,-168.5001"/>
</g>
<!-- RouterModule -->
<g id="node10" class="node">
<title>RouterModule</title>
<polygon fill="#8dd3c7" stroke="#000000" points="121.6528,-122 118.6528,-126 97.6528,-126 94.6528,-122 24.3472,-122 24.3472,-86 121.6528,-86 121.6528,-122"/>
<text text-anchor="middle" x="73" y="-99.8" font-family="Times,serif" font-size="14.00" fill="#000000">RouterModule</text>
</g>
<!-- RouterModule&#45;&gt;SidenavModule -->
<g id="edge9" class="edge">
<title>RouterModule&#45;&gt;SidenavModule</title>
<path fill="none" stroke="#000000" d="M103.8266,-122.1061C103.8266,-141.3391 103.8266,-169 103.8266,-169 103.8266,-169 665.5894,-169 665.5894,-169"/>
<polygon fill="#000000" stroke="#000000" points="665.5894,-172.5001 675.5894,-169 665.5893,-165.5001 665.5894,-172.5001"/>
</g>
</g>
</svg>
