<?xml version="1.0" encoding="UTF-8" standalone="no"?>
<!DOCTYPE svg PUBLIC "-//W3C//DTD SVG 1.1//EN"
 "http://www.w3.org/Graphics/SVG/1.1/DTD/svg11.dtd">
<!-- Generated by graphviz version 2.40.1 (20161225.0304)
 -->
<!-- Title: dependencies Pages: 1 -->
<svg width="1314pt" height="284pt"
 viewBox="0.00 0.00 1314.00 284.00" xmlns="http://www.w3.org/2000/svg" xmlns:xlink="http://www.w3.org/1999/xlink">
<g id="graph0" class="graph" transform="scale(1 1) rotate(0) translate(4 280)">
<title>dependencies</title>
<polygon fill="#ffffff" stroke="transparent" points="-4,4 -4,-280 1310,-280 1310,4 -4,4"/>
<text text-anchor="start" x="632.0091" y="-42.4" font-family="sans-serif" font-weight="bold" font-size="14.00" fill="#000000">Legend</text>
<polygon fill="#ffffb3" stroke="transparent" points="419,-10 419,-30 439,-30 439,-10 419,-10"/>
<text text-anchor="start" x="442.629" y="-15.4" font-family="sans-serif" font-size="14.00" fill="#000000"> &#160;Declarations</text>
<polygon fill="#8dd3c7" stroke="transparent" points="532,-10 532,-30 552,-30 552,-10 532,-10"/>
<text text-anchor="start" x="555.7251" y="-15.4" font-family="sans-serif" font-size="14.00" fill="#000000"> &#160;Module</text>
<polygon fill="#80b1d3" stroke="transparent" points="618,-10 618,-30 638,-30 638,-10 618,-10"/>
<text text-anchor="start" x="641.7812" y="-15.4" font-family="sans-serif" font-size="14.00" fill="#000000"> &#160;Bootstrap</text>
<polygon fill="#fdb462" stroke="transparent" points="715,-10 715,-30 735,-30 735,-10 715,-10"/>
<text text-anchor="start" x="738.6732" y="-15.4" font-family="sans-serif" font-size="14.00" fill="#000000"> &#160;Providers</text>
<polygon fill="#fb8072" stroke="transparent" points="811,-10 811,-30 831,-30 831,-10 811,-10"/>
<text text-anchor="start" x="834.7258" y="-15.4" font-family="sans-serif" font-size="14.00" fill="#000000"> &#160;Exports</text>
<g id="clust1" class="cluster">
<title>cluster_SidenavModule</title>
<polygon fill="none" stroke="#000000" stroke-dasharray="1,5" points="8,-70 8,-268 1298,-268 1298,-70 8,-70"/>
</g>
<g id="clust2" class="cluster">
<title>cluster_SidenavModule_declarations</title>
<polygon fill="none" stroke="#000000" points="28,-78 28,-130 1277,-130 1277,-78 28,-78"/>
</g>
<g id="clust11" class="cluster">
<title>cluster_SidenavModule_exports</title>
<polygon fill="none" stroke="#000000" points="16,-208 16,-260 1290,-260 1290,-208 16,-208"/>
</g>
<!-- SidenavBlockComponent -->
<g id="node1" class="node">
<title>SidenavBlockComponent</title>
<polygon fill="#ffffb3" stroke="#000000" points="1268.8766,-122 1109.1234,-122 1109.1234,-86 1268.8766,-86 1268.8766,-122"/>
<text text-anchor="middle" x="1189" y="-99.8" font-family="Times,serif" font-size="14.00" fill="#000000">SidenavBlockComponent</text>
</g>
<!-- SidenavModule -->
<g id="node8" class="node">
<title>SidenavModule</title>
<polygon fill="#8dd3c7" stroke="#000000" points="728.1528,-187 725.1528,-191 704.1528,-191 701.1528,-187 623.8472,-187 623.8472,-151 728.1528,-151 728.1528,-187"/>
<text text-anchor="middle" x="676" y="-164.8" font-family="Times,serif" font-size="14.00" fill="#000000">SidenavModule</text>
</g>
<!-- SidenavBlockComponent&#45;&gt;SidenavModule -->
<g id="edge1" class="edge">
<title>SidenavBlockComponent&#45;&gt;SidenavModule</title>
<path fill="none" stroke="#000000" d="M1113.6867,-122.2222C1113.6867,-140.8285 1113.6867,-167 1113.6867,-167 1113.6867,-167 738.3605,-167 738.3605,-167"/>
<polygon fill="#000000" stroke="#000000" points="738.3605,-163.5001 728.3605,-167 738.3605,-170.5001 738.3605,-163.5001"/>
</g>
<!-- SidenavComponent -->
<g id="node2" class="node">
<title>SidenavComponent</title>
<polygon fill="#ffffb3" stroke="#000000" points="1091.4356,-122 964.5644,-122 964.5644,-86 1091.4356,-86 1091.4356,-122"/>
<text text-anchor="middle" x="1028" y="-99.8" font-family="Times,serif" font-size="14.00" fill="#000000">SidenavComponent</text>
</g>
<!-- SidenavComponent&#45;&gt;SidenavModule -->
<g id="edge2" class="edge">
<title>SidenavComponent&#45;&gt;SidenavModule</title>
<path fill="none" stroke="#000000" d="M1050.8225,-122.0336C1050.8225,-139.0597 1050.8225,-162 1050.8225,-162 1050.8225,-162 738.5121,-162 738.5121,-162"/>
<polygon fill="#000000" stroke="#000000" points="738.5122,-158.5001 728.5121,-162 738.5121,-165.5001 738.5122,-158.5001"/>
</g>
<!-- SidenavDividerComponent -->
<g id="node3" class="node">
<title>SidenavDividerComponent</title>
<polygon fill="#ffffb3" stroke="#000000" points="946.6979,-122 777.3021,-122 777.3021,-86 946.6979,-86 946.6979,-122"/>
<text text-anchor="middle" x="862" y="-99.8" font-family="Times,serif" font-size="14.00" fill="#000000">SidenavDividerComponent</text>
</g>
<!-- SidenavDividerComponent&#45;&gt;SidenavModule -->
<g id="edge3" class="edge">
<title>SidenavDividerComponent&#45;&gt;SidenavModule</title>
<path fill="none" stroke="#000000" d="M890.9496,-122.2396C890.9496,-137.5706 890.9496,-157 890.9496,-157 890.9496,-157 738.3077,-157 738.3077,-157"/>
<polygon fill="#000000" stroke="#000000" points="738.3078,-153.5001 728.3077,-157 738.3077,-160.5001 738.3078,-153.5001"/>
</g>
<!-- SidenavHeaderComponent -->
<g id="node4" class="node">
<title>SidenavHeaderComponent</title>
<polygon fill="#ffffb3" stroke="#000000" points="759.3459,-122 592.6541,-122 592.6541,-86 759.3459,-86 759.3459,-122"/>
<text text-anchor="middle" x="676" y="-99.8" font-family="Times,serif" font-size="14.00" fill="#000000">SidenavHeaderComponent</text>
</g>
<!-- SidenavHeaderComponent&#45;&gt;SidenavModule -->
<g id="edge4" class="edge">
<title>SidenavHeaderComponent&#45;&gt;SidenavModule</title>
<path fill="none" stroke="#000000" d="M676,-122.1061C676,-122.1061 676,-140.991 676,-140.991"/>
<polygon fill="#000000" stroke="#000000" points="672.5001,-140.9909 676,-150.991 679.5001,-140.991 672.5001,-140.9909"/>
</g>
<!-- SidenavLinkComponent -->
<g id="node5" class="node">
<title>SidenavLinkComponent</title>
<polygon fill="#ffffb3" stroke="#000000" points="574.378,-122 421.622,-122 421.622,-86 574.378,-86 574.378,-122"/>
<text text-anchor="middle" x="498" y="-99.8" font-family="Times,serif" font-size="14.00" fill="#000000">SidenavLinkComponent</text>
</g>
<!-- SidenavLinkComponent&#45;&gt;SidenavModule -->
<g id="edge5" class="edge">
<title>SidenavLinkComponent&#45;&gt;SidenavModule</title>
<path fill="none" stroke="#000000" d="M522.6463,-122.2396C522.6463,-137.5706 522.6463,-157 522.6463,-157 522.6463,-157 613.6533,-157 613.6533,-157"/>
<polygon fill="#000000" stroke="#000000" points="613.6533,-160.5001 623.6533,-157 613.6532,-153.5001 613.6533,-160.5001"/>
</g>
<!-- SidenavMenuComponent -->
<g id="node6" class="node">
<title>SidenavMenuComponent</title>
<polygon fill="#ffffb3" stroke="#000000" points="403.594,-122 244.406,-122 244.406,-86 403.594,-86 403.594,-122"/>
<text text-anchor="middle" x="324" y="-99.8" font-family="Times,serif" font-size="14.00" fill="#000000">SidenavMenuComponent</text>
</g>
<!-- SidenavMenuComponent&#45;&gt;SidenavModule -->
<g id="edge6" class="edge">
<title>SidenavMenuComponent&#45;&gt;SidenavModule</title>
<path fill="none" stroke="#000000" d="M347.6823,-122.0336C347.6823,-139.0597 347.6823,-162 347.6823,-162 347.6823,-162 613.6141,-162 613.6141,-162"/>
<polygon fill="#000000" stroke="#000000" points="613.6141,-165.5001 623.6141,-162 613.614,-158.5001 613.6141,-165.5001"/>
</g>
<!-- SidenavRouterLinkComponent -->
<g id="node7" class="node">
<title>SidenavRouterLinkComponent</title>
<polygon fill="#ffffb3" stroke="#000000" points="226.4804,-122 35.5196,-122 35.5196,-86 226.4804,-86 226.4804,-122"/>
<text text-anchor="middle" x="131" y="-99.8" font-family="Times,serif" font-size="14.00" fill="#000000">SidenavRouterLinkComponent</text>
</g>
<!-- SidenavRouterLinkComponent&#45;&gt;SidenavModule -->
<g id="edge7" class="edge">
<title>SidenavRouterLinkComponent&#45;&gt;SidenavModule</title>
<path fill="none" stroke="#000000" d="M222.3652,-122.2222C222.3652,-140.8285 222.3652,-167 222.3652,-167 222.3652,-167 613.5192,-167 613.5192,-167"/>
<polygon fill="#000000" stroke="#000000" points="613.5192,-170.5001 623.5192,-167 613.5191,-163.5001 613.5192,-170.5001"/>
</g>
<!-- SidenavBlockComponent  -->
<g id="node9" class="node">
<title>SidenavBlockComponent </title>
<polygon fill="#fb8072" stroke="#000000" points="1281.877,-252 1118.123,-252 1118.123,-216 1281.877,-216 1281.877,-252"/>
<text text-anchor="middle" x="1200" y="-229.8" font-family="Times,serif" font-size="14.00" fill="#000000">SidenavBlockComponent </text>
</g>
<!-- SidenavModule&#45;&gt;SidenavBlockComponent  -->
<g id="edge8" class="edge">
<title>SidenavModule&#45;&gt;SidenavBlockComponent </title>
<path fill="none" stroke="#000000" stroke-dasharray="5,2" d="M728.4812,-172C860.0765,-172 1193.625,-172 1193.625,-172 1193.625,-172 1193.625,-205.7333 1193.625,-205.7333"/>
<polygon fill="#000000" stroke="#000000" points="1190.1251,-205.7333 1193.625,-215.7333 1197.1251,-205.7333 1190.1251,-205.7333"/>
</g>
<!-- SidenavComponent  -->
<g id="node10" class="node">
<title>SidenavComponent </title>
<polygon fill="#fb8072" stroke="#000000" points="1099.9348,-252 970.0652,-252 970.0652,-216 1099.9348,-216 1099.9348,-252"/>
<text text-anchor="middle" x="1035" y="-229.8" font-family="Times,serif" font-size="14.00" fill="#000000">SidenavComponent </text>
</g>
<!-- SidenavModule&#45;&gt;SidenavComponent  -->
<g id="edge9" class="edge">
<title>SidenavModule&#45;&gt;SidenavComponent </title>
<path fill="none" stroke="#000000" stroke-dasharray="5,2" d="M728.2543,-177C822.312,-177 1010.4275,-177 1010.4275,-177 1010.4275,-177 1010.4275,-205.9648 1010.4275,-205.9648"/>
<polygon fill="#000000" stroke="#000000" points="1006.9276,-205.9648 1010.4275,-215.9648 1013.9276,-205.9649 1006.9276,-205.9648"/>
</g>
<!-- SidenavDividerComponent  -->
<g id="node11" class="node">
<title>SidenavDividerComponent </title>
<polygon fill="#fb8072" stroke="#000000" points="952.1981,-252 779.8019,-252 779.8019,-216 952.1981,-216 952.1981,-252"/>
<text text-anchor="middle" x="866" y="-229.8" font-family="Times,serif" font-size="14.00" fill="#000000">SidenavDividerComponent </text>
</g>
<!-- SidenavModule&#45;&gt;SidenavDividerComponent  -->
<g id="edge10" class="edge">
<title>SidenavModule&#45;&gt;SidenavDividerComponent </title>
<path fill="none" stroke="#000000" stroke-dasharray="5,2" d="M728.1609,-182C774.6196,-182 835.3004,-182 835.3004,-182 835.3004,-182 835.3004,-205.8129 835.3004,-205.8129"/>
<polygon fill="#000000" stroke="#000000" points="831.8005,-205.8129 835.3004,-215.8129 838.8005,-205.813 831.8005,-205.8129"/>
</g>
<!-- SidenavHeaderComponent  -->
<g id="node12" class="node">
<title>SidenavHeaderComponent </title>
<polygon fill="#fb8072" stroke="#000000" points="761.3462,-252 590.6538,-252 590.6538,-216 761.3462,-216 761.3462,-252"/>
<text text-anchor="middle" x="676" y="-229.8" font-family="Times,serif" font-size="14.00" fill="#000000">SidenavHeaderComponent </text>
</g>
<!-- SidenavModule&#45;&gt;SidenavHeaderComponent  -->
<g id="edge11" class="edge">
<title>SidenavModule&#45;&gt;SidenavHeaderComponent </title>
<path fill="none" stroke="#000000" stroke-dasharray="5,2" d="M676,-187.1061C676,-187.1061 676,-205.991 676,-205.991"/>
<polygon fill="#000000" stroke="#000000" points="672.5001,-205.9909 676,-215.991 679.5001,-205.991 672.5001,-205.9909"/>
</g>
<!-- SidenavLinkComponent  -->
<g id="node13" class="node">
<title>SidenavLinkComponent </title>
<polygon fill="#fb8072" stroke="#000000" points="573.3785,-252 416.6215,-252 416.6215,-216 573.3785,-216 573.3785,-252"/>
<text text-anchor="middle" x="495" y="-229.8" font-family="Times,serif" font-size="14.00" fill="#000000">SidenavLinkComponent </text>
</g>
<!-- SidenavModule&#45;&gt;SidenavLinkComponent  -->
<g id="edge12" class="edge">
<title>SidenavModule&#45;&gt;SidenavLinkComponent </title>
<path fill="none" stroke="#000000" stroke-dasharray="5,2" d="M623.7564,-182C563.3448,-182 472.1037,-182 472.1037,-182 472.1037,-182 472.1037,-205.8129 472.1037,-205.8129"/>
<polygon fill="#000000" stroke="#000000" points="468.6038,-205.8129 472.1037,-215.8129 475.6038,-205.813 468.6038,-205.8129"/>
</g>
<!-- SidenavMenuComponent  -->
<g id="node14" class="node">
<title>SidenavMenuComponent </title>
<polygon fill="#fb8072" stroke="#000000" points="399.0945,-252 236.9055,-252 236.9055,-216 399.0945,-216 399.0945,-252"/>
<text text-anchor="middle" x="318" y="-229.8" font-family="Times,serif" font-size="14.00" fill="#000000">SidenavMenuComponent </text>
</g>
<!-- SidenavModule&#45;&gt;SidenavMenuComponent  -->
<g id="edge13" class="edge">
<title>SidenavModule&#45;&gt;SidenavMenuComponent </title>
<path fill="none" stroke="#000000" stroke-dasharray="5,2" d="M623.5709,-177C519.3455,-177 296.0677,-177 296.0677,-177 296.0677,-177 296.0677,-205.9648 296.0677,-205.9648"/>
<polygon fill="#000000" stroke="#000000" points="292.5678,-205.9648 296.0677,-215.9648 299.5678,-205.9649 292.5678,-205.9648"/>
</g>
<!-- SidenavRouterLinkComponent  -->
<g id="node15" class="node">
<title>SidenavRouterLinkComponent </title>
<polygon fill="#fb8072" stroke="#000000" points="218.481,-252 23.519,-252 23.519,-216 218.481,-216 218.481,-252"/>
<text text-anchor="middle" x="121" y="-229.8" font-family="Times,serif" font-size="14.00" fill="#000000">SidenavRouterLinkComponent </text>
</g>
<!-- SidenavModule&#45;&gt;SidenavRouterLinkComponent  -->
<g id="edge14" class="edge">
<title>SidenavModule&#45;&gt;SidenavRouterLinkComponent </title>
<path fill="none" stroke="#000000" stroke-dasharray="5,2" d="M623.8446,-172C486.7738,-172 126.875,-172 126.875,-172 126.875,-172 126.875,-205.7333 126.875,-205.7333"/>
<polygon fill="#000000" stroke="#000000" points="123.3751,-205.7333 126.875,-215.7333 130.3751,-205.7333 123.3751,-205.7333"/>
</g>
</g>
</svg>
